<svg width="60" height="70" viewBox="0 0 60 70" fill="none" xmlns="http://www.w3.org/2000/svg">
<g clip-path="url(#clip0_415_91)">
<path d="M30.9615 34.3916L34.1959 33.3598C34.8284 33.1826 35.4917 33.1421 36.1413 33.2409C36.7908 33.3398 37.4116 33.5758 37.962 33.933L41.1964 32.8924C42.0565 32.6624 42.9719 32.7588 43.7645 33.163C44.5572 33.5672 45.1705 34.2502 45.4853 35.0794L48.7374 34.03C49.5976 33.7894 50.5175 33.8811 51.3127 34.2866C52.108 34.6921 52.72 35.3816 53.0262 36.217L58.4494 52.9718C59.5039 56.2346 56.8986 59.2417 57.5632 61.411" stroke="#453DFF" stroke-width="2.96" stroke-miterlimit="10" stroke-linecap="round"/>
<path d="M33.0439 40.8289L27.1068 22.4867C26.8295 21.6319 26.2223 20.9217 25.4188 20.5124C24.6153 20.1031 23.6813 20.0282 22.8224 20.3042C21.9634 20.5802 21.2497 21.1844 20.8384 21.984C20.4271 22.7836 20.3519 23.713 20.6292 24.5679L28.6044 49.3474C28.423 49.6837 28.1691 49.9758 27.8608 50.2028C27.5525 50.4298 27.1975 50.586 26.8213 50.6602C26.4452 50.7344 26.0571 50.7247 25.6851 50.6319C25.3132 50.5391 24.9665 50.3655 24.6699 50.1234L20.7621 46.94C17.0226 44.2151 13.673 47.4779 14.2047 49.0388C14.2047 49.0388 22.8091 58.8888 23.8724 59.7619C25.5738 61.164 34.1073 66.358 34.5503 67.6984L34.8605 68.6508" stroke="#453DFF" stroke-width="2.96" stroke-miterlimit="10" stroke-linecap="round"/>
<path d="M37.9619 33.9155L40.0443 40.3617" stroke="#453DFF" stroke-width="2.96" stroke-miterlimit="10" stroke-linecap="round"/>
<path d="M45.4852 35.0618L47.0448 39.903" stroke="#453DFF" stroke-width="2.96" stroke-miterlimit="10" stroke-linecap="round"/>
<path d="M5.86624 26.9666C8.38174 26.9666 10.421 24.9373 10.421 22.434C10.421 19.9307 8.38174 17.9014 5.86624 17.9014C3.35074 17.9014 1.31152 19.9307 1.31152 22.434C1.31152 24.9373 3.35074 26.9666 5.86624 26.9666Z" stroke="#453DFF" stroke-width="2.96" stroke-miterlimit="10" stroke-linecap="round"/>
<path d="M5.86624 43.5716C8.38174 43.5716 10.421 41.5423 10.421 39.039C10.421 36.5357 8.38174 34.5063 5.86624 34.5063C3.35074 34.5063 1.31152 36.5357 1.31152 39.039C1.31152 41.5423 3.35074 43.5716 5.86624 43.5716Z" stroke="#453DFF" stroke-width="2.96" stroke-miterlimit="10" stroke-linecap="round"/>
<path d="M42.2686 26.9666C44.7841 26.9666 46.8233 24.9373 46.8233 22.434C46.8233 19.9307 44.7841 17.9014 42.2686 17.9014C39.7531 17.9014 37.7139 19.9307 37.7139 22.434C37.7139 24.9373 39.7531 26.9666 42.2686 26.9666Z" stroke="#453DFF" stroke-width="2.96" stroke-miterlimit="10" stroke-linecap="round"/>
<path d="M5.86624 10.3704C8.38174 10.3704 10.421 8.3411 10.421 5.8378C10.421 3.3345 8.38174 1.30518 5.86624 1.30518C3.35074 1.30518 1.31152 3.3345 1.31152 5.8378C1.31152 8.3411 3.35074 10.3704 5.86624 10.3704Z" stroke="#453DFF" stroke-width="2.96" stroke-miterlimit="10" stroke-linecap="round"/>
<path d="M24.0674 10.3704C26.5829 10.3704 28.6221 8.3411 28.6221 5.8378C28.6221 3.3345 26.5829 1.30518 24.0674 1.30518C21.5519 1.30518 19.5127 3.3345 19.5127 5.8378C19.5127 8.3411 21.5519 10.3704 24.0674 10.3704Z" stroke="#453DFF" stroke-width="2.96" stroke-miterlimit="10" stroke-linecap="round"/>
<path d="M42.2686 10.3704C44.7841 10.3704 46.8233 8.3411 46.8233 5.8378C46.8233 3.3345 44.7841 1.30518 42.2686 1.30518C39.7531 1.30518 37.7139 3.3345 37.7139 5.8378C37.7139 8.3411 39.7531 10.3704 42.2686 10.3704Z" stroke="#453DFF" stroke-width="2.96" stroke-miterlimit="10" stroke-linecap="round"/>
<path d="M10.4121 5.83789H19.5127" stroke="#453DFF" stroke-width="2.96" stroke-miterlimit="10" stroke-linecap="round"/>
<path d="M10.4121 22.4338H15.339" stroke="#453DFF" stroke-width="2.96" stroke-miterlimit="10" stroke-linecap="round"/>
<path d="M28.6133 5.83789H37.7139" stroke="#453DFF" stroke-width="2.96" stroke-miterlimit="10" stroke-linecap="round"/>
<path d="M39.0519 9.03882L30.9615 18.4568" stroke="#453DFF" stroke-width="2.96" stroke-miterlimit="10" stroke-linecap="round"/>
</g>
<defs>
<clipPath id="clip0_415_91">
<rect width="60" height="70" fill="white"/>
</clipPath>
</defs>
</svg>
