<svg width="88" height="53" viewBox="0 0 88 53" fill="none" xmlns="http://www.w3.org/2000/svg">
<path d="M86.3085 5.56859H72.8685C70.972 5.56488 69.1191 4.99761 67.5428 3.93817L66.6171 3.31815C65.0357 2.26186 63.1789 1.69863 61.2799 1.69922H46.7085C45.326 1.70292 43.9896 2.19929 42.9371 3.1L37.4285 8.70312C37.4285 8.70312 34.5942 11.5965 31.7142 14.6162C32.7876 15.8268 34.2002 16.6829 35.7666 17.0723C37.333 17.4616 38.9801 17.3659 40.4914 16.7978C42.7402 15.8802 44.8763 14.7052 46.8571 13.2958H51.7485L58.9257 20.0012" stroke="#453DFF" stroke-width="2.96" stroke-miterlimit="10" stroke-linecap="round"/>
<path d="M71.7257 33.0217C73.5086 31.2305 75.7257 30.7253 78.5828 30.7253" stroke="#453DFF" stroke-width="2.96" stroke-miterlimit="10" stroke-linecap="round"/>
<path d="M58.8685 20.0012C58.8685 20.0012 68.8456 30.5186 71.7256 33.0216C74.6056 35.5246 70.6399 42.207 66.0113 38.4984C63.2342 36.1102 54.3428 27.5562 54.3428 27.5562" stroke="#453DFF" stroke-width="2.96" stroke-miterlimit="10" stroke-linecap="round"/>
<path d="M67.3257 39.2791C66.48 41.2999 63.0514 46.0534 58.6857 42.7237C55.92 40.3469 50.1714 34.8816 50.1714 34.8816" stroke="#453DFF" stroke-width="2.96" stroke-miterlimit="10" stroke-linecap="round"/>
<path d="M60.3429 43.6309C58.3657 47.684 54.8571 49.3718 51.7371 46.8228C49.5429 45.0776 46.1829 41.6331 46.1829 41.6331" stroke="#453DFF" stroke-width="2.96" stroke-miterlimit="10" stroke-linecap="round"/>
<path d="M52.7771 47.4773C51.6343 50.4511 48.2057 52.38 45.4057 50.6463C43.8057 49.6474 40.9371 47.5347 40.9371 47.5347" stroke="#453DFF" stroke-width="2.96" stroke-miterlimit="10" stroke-linecap="round"/>
<path d="M1.69141 5.5686H16.6743C18.1912 5.56595 19.6738 5.11471 20.9371 4.27116L22.8571 2.99668C24.1181 2.1481 25.6022 1.69639 27.12 1.69923H38.3543C39.2017 1.70251 40.0247 1.98484 40.6971 2.50296L42.3543 3.65114" stroke="#453DFF" stroke-width="2.96" stroke-miterlimit="10" stroke-linecap="round"/>
<path d="M23.4171 35.7313C23.7163 35.4231 23.9495 35.0566 24.1026 34.6545C24.2556 34.2523 24.3252 33.823 24.307 33.3928C24.2888 32.9627 24.1832 32.5408 23.9968 32.1531C23.8103 31.7655 23.5469 31.4202 23.2228 31.1386V31.1386C22.9123 30.7961 22.5362 30.5201 22.117 30.3271C21.6979 30.134 21.2443 30.0279 20.7834 30.015C20.3224 30.0021 19.8637 30.0828 19.4345 30.2522C19.0053 30.4216 18.6146 30.6762 18.2856 31.0008L16.3199 32.8953C15.9444 33.2046 15.6371 33.589 15.4175 34.0242C15.198 34.4594 15.0711 34.9357 15.0449 35.4228C15.0187 35.91 15.0937 36.3973 15.2653 36.8537C15.4368 37.3101 15.7011 37.7256 16.0412 38.0737C16.3814 38.4219 16.79 38.695 17.241 38.8758C17.6921 39.0566 18.1756 39.141 18.6609 39.1237C19.1462 39.1064 19.6226 38.9878 20.0597 38.7754C20.4969 38.5629 20.8852 38.2614 21.1999 37.8899" stroke="#453DFF" stroke-width="2.96" stroke-miterlimit="10" stroke-linecap="round"/>
<path d="M31.4057 32.8493C31.0914 32.5124 30.7129 32.2424 30.2928 32.0554C29.8726 31.8684 29.4193 31.7682 28.9598 31.7607C28.5003 31.7532 28.044 31.8386 27.618 32.0118C27.192 32.185 26.805 32.4425 26.48 32.7689L20.7657 38.372C20.1004 39.0222 19.7194 39.9112 19.7065 40.8436C19.6937 41.7759 20.05 42.6752 20.6971 43.3436C21.3442 44.0121 22.2292 44.3948 23.1572 44.4077C24.0852 44.4207 24.9804 44.0627 25.6457 43.4125L31.36 37.8324C32.0207 37.176 32.3963 36.2838 32.4049 35.3503C32.4135 34.4168 32.0543 33.5178 31.4057 32.8493V32.8493Z" stroke="#453DFF" stroke-width="2.96" stroke-miterlimit="10" stroke-linecap="round"/>
<path d="M26.5829 42.4826C26.2374 42.798 25.9582 43.1798 25.7618 43.6053C25.5655 44.0309 25.4559 44.4916 25.4396 44.9604C25.4233 45.4291 25.5006 45.8964 25.667 46.3347C25.8333 46.7729 26.0853 47.1733 26.4081 47.5122C26.7309 47.8511 27.1179 48.1216 27.5465 48.3077C27.975 48.4939 28.4363 48.592 28.9031 48.5963C29.37 48.6005 29.8329 48.5108 30.2647 48.3324C30.6965 48.154 31.0884 47.8905 31.4172 47.5576L36.64 42.4367C37.3048 41.7919 37.6906 40.9105 37.7141 39.9825C37.7376 39.0545 37.397 38.1544 36.7658 37.4765C36.4538 37.1374 36.0772 36.8647 35.6583 36.6747C35.2393 36.4847 34.7866 36.3813 34.3271 36.3706C33.8676 36.3598 33.4106 36.4421 32.9834 36.6123C32.5561 36.7826 32.1673 37.0375 31.84 37.3617" stroke="#453DFF" stroke-width="2.96" stroke-miterlimit="10" stroke-linecap="round"/>
<path d="M33.8743 45.1005C33.27 45.7669 32.943 46.6407 32.9602 47.542C32.9775 48.4434 33.3379 49.3038 33.9673 49.9464C34.5966 50.5889 35.4471 50.9648 36.3439 50.9968C37.2407 51.0287 38.1155 50.7142 38.7886 50.118L40.1143 48.8206C40.7647 48.1606 41.1296 47.2693 41.1296 46.3405C41.1296 45.4117 40.7647 44.5204 40.1143 43.8604V43.8604C39.7946 43.5288 39.4119 43.2652 38.9888 43.0851C38.5657 42.905 38.1109 42.8123 37.6514 42.8123C37.1919 42.8123 36.7371 42.905 36.3141 43.0851C35.891 43.2652 35.5082 43.5288 35.1886 43.8604" stroke="#453DFF" stroke-width="2.96" stroke-miterlimit="10" stroke-linecap="round"/>
<path d="M67.0628 21.8153C62.4914 22.7568 61.3485 21.5857 58.8685 20.0471" stroke="#453DFF" stroke-width="2.96" stroke-miterlimit="10" stroke-linecap="round"/>
<path d="M16.1714 33.033C14.2668 31.4546 11.8498 30.637 9.38281 30.7367" stroke="#453DFF" stroke-width="2.96" stroke-miterlimit="10" stroke-linecap="round"/>
</svg>
