<svg width="51" height="79" viewBox="0 0 51 79" fill="none" xmlns="http://www.w3.org/2000/svg">
<g clip-path="url(#clip0_415_110)">
<path d="M24.52 43.88V22.05C24.5475 21.4925 24.4615 20.9353 24.2671 20.4121C24.0727 19.8889 23.774 19.4107 23.3892 19.0064C23.0044 18.6022 22.5414 18.2803 22.0285 18.0604C21.5155 17.8405 20.9632 17.7271 20.405 17.7271C19.8469 17.7271 19.2946 17.8405 18.7816 18.0604C18.2686 18.2803 17.8057 18.6022 17.4209 19.0064C17.0361 19.4107 16.7374 19.8889 16.543 20.4121C16.3486 20.9353 16.2625 21.4925 16.29 22.05V46.28" stroke="#453DFF" stroke-width="2.96" stroke-miterlimit="10" stroke-linecap="round"/>
<path d="M34.21 65.9999C34.08 58.9299 28.74 55.1599 23.66 53.9999C25.59 53.2399 28.43 51.8999 30.77 50.7599C35.12 48.6299 34.91 46.0799 33.43 41.6399C30.19 42.3799 17.97 45.5299 15.66 46.5499C13.35 47.5699 9.45002 56.6199 10 58.8399C11.2913 62.3068 13.124 65.547 15.43 68.4399C16.91 69.9199 18.43 71.2999 18.43 73.5199V77.1699" stroke="#453DFF" stroke-width="2.96" stroke-miterlimit="10" stroke-linecap="round"/>
<path d="M49.2 47.55V64.8301C49.2 69.5601 44.26 72.7401 44.26 75.7301V77.17" stroke="#453DFF" stroke-width="2.96" stroke-miterlimit="10" stroke-linecap="round"/>
<path d="M32.74 37.68V36C32.74 34.19 30.9 32.71 28.63 32.71C26.36 32.71 24.52 34.22 24.52 36V41" stroke="#453DFF" stroke-width="2.96" stroke-miterlimit="10" stroke-linecap="round"/>
<path d="M49.2 47.55C49.2 49.37 47.35 50.84 45.08 50.84C42.81 50.84 40.97 49.37 40.97 47.55V41C40.97 39.18 42.81 37.71 45.08 37.71C47.35 37.71 49.2 39.18 49.2 41V47.55Z" stroke="#453DFF" stroke-width="2.96" stroke-miterlimit="10" stroke-linecap="round"/>
<path d="M21.22 1.47998V9.70998" stroke="#453DFF" stroke-width="2.96" stroke-miterlimit="10" stroke-linecap="round"/>
<path d="M6.78003 6.78003L12.6 12.6" stroke="#453DFF" stroke-width="2.96" stroke-miterlimit="10" stroke-linecap="round"/>
<path d="M6.78003 6.78003L12.6 12.6" stroke="#453DFF" stroke-width="2.96" stroke-miterlimit="10" stroke-linecap="round"/>
<path d="M1.47998 19.5801H9.70998" stroke="#453DFF" stroke-width="2.96" stroke-miterlimit="10" stroke-linecap="round"/>
<path d="M1.47998 19.5801H9.70998" stroke="#453DFF" stroke-width="2.96" stroke-miterlimit="10" stroke-linecap="round"/>
<path d="M39.32 19.5801H31.1" stroke="#453DFF" stroke-width="2.96" stroke-miterlimit="10" stroke-linecap="round"/>
<path d="M39.32 19.5801H31.1" stroke="#453DFF" stroke-width="2.96" stroke-miterlimit="10" stroke-linecap="round"/>
<path d="M34.02 6.78003L28.21 12.6" stroke="#453DFF" stroke-width="2.96" stroke-miterlimit="10" stroke-linecap="round"/>
<path d="M33.85 48.1999C34.7155 48.849 35.7681 49.1999 36.85 49.1999V49.1999C39.12 49.1999 40.96 47.7199 40.96 45.8999V37.6799C40.96 35.8599 39.12 34.3899 36.85 34.3899C34.57 34.3899 32.73 35.8599 32.73 37.6799V41.7799" stroke="#453DFF" stroke-width="2.96" stroke-miterlimit="10" stroke-linecap="round"/>
</g>
<defs>
<clipPath id="clip0_415_110">
<rect width="50.68" height="78.65" fill="white"/>
</clipPath>
</defs>
</svg>
