<svg width="240" height="126" viewBox="0 0 240 126" fill="none" xmlns="http://www.w3.org/2000/svg">
<g clip-path="url(#clip0_420_567)">
<path d="M8.47494 120.659C7.39077 120.658 6.31695 120.447 5.31253 120.037C4.28593 119.615 3.36158 118.976 2.60189 118.164C1.7809 117.287 1.13862 116.257 0.711141 115.133C0.21401 113.813 -0.0273617 112.411 1.7813e-05 111.001V110.933C-0.0281883 109.523 0.21321 108.12 0.711141 106.801C1.14189 105.68 1.77745 104.649 2.58516 103.761C3.3398 102.953 4.25848 102.318 5.27906 101.897C6.29297 101.479 7.37883 101.265 8.47494 101.267C9.69511 101.221 10.9044 101.512 11.972 102.107C12.8413 102.63 13.621 103.291 14.2811 104.064V94.8254H19.5601V120.289H14.2811V117.602C13.6436 118.474 12.8455 119.215 11.9302 119.785C10.8818 120.393 9.68519 120.696 8.47494 120.659V120.659ZM9.83025 116.166C10.4354 116.169 11.0342 116.043 11.5871 115.796C12.1302 115.552 12.6151 115.194 13.0094 114.746C13.4324 114.266 13.7616 113.711 13.9799 113.109C14.234 112.436 14.3589 111.72 14.348 111.001V110.933C14.359 110.211 14.2341 109.493 13.9799 108.817C13.7616 108.215 13.4324 107.659 13.0094 107.179C12.6153 106.734 12.1302 106.379 11.5871 106.138C11.0333 105.894 10.435 105.768 9.83025 105.768C9.22547 105.768 8.62725 105.894 8.07336 106.138C7.52766 106.382 7.03786 106.737 6.63438 107.179C6.20704 107.653 5.87216 108.203 5.64718 108.8C5.39398 109.482 5.26916 110.206 5.27906 110.933V111.001C5.27225 111.72 5.39702 112.434 5.64718 113.109C5.86899 113.713 6.2041 114.269 6.63438 114.746C7.03753 115.191 7.52727 115.549 8.07336 115.796C8.62626 116.043 9.22515 116.169 9.83025 116.166V116.166Z" fill="#F7F7F7"/>
<path d="M32.4107 120.734C31.0877 120.744 29.7742 120.508 28.5372 120.037C27.3851 119.595 26.336 118.919 25.4552 118.052C24.5744 117.185 23.8806 116.146 23.4171 114.998C22.918 113.749 22.6706 112.413 22.6892 111.068V111C22.682 109.715 22.9118 108.44 23.3669 107.238C23.7912 106.089 24.4333 105.034 25.2576 104.131C26.1018 103.213 27.1286 102.484 28.2716 101.991C29.4145 101.497 30.648 101.251 31.892 101.267C33.2823 101.235 34.6616 101.522 35.9245 102.107C37.02 102.64 37.9853 103.408 38.7522 104.357C39.5161 105.318 40.0846 106.419 40.4255 107.599C40.7829 108.841 40.9632 110.128 40.9609 111.42C40.9609 111.63 40.9609 111.849 40.9609 112.084C40.9609 112.319 40.9609 112.554 40.9107 112.815H27.9348C28.1069 113.892 28.6702 114.867 29.516 115.552C30.3745 116.187 31.4207 116.512 32.486 116.476C33.2952 116.49 34.0985 116.336 34.8452 116.023C35.6379 115.655 36.3667 115.161 37.0037 114.561L40.0239 117.24C39.1526 118.322 38.0561 119.199 36.8113 119.81C35.4334 120.45 33.9284 120.766 32.4107 120.734V120.734ZM35.8157 109.497C35.7014 108.445 35.266 107.453 34.5691 106.659C34.2279 106.293 33.8122 106.005 33.3501 105.815C32.8881 105.625 32.3908 105.538 31.892 105.558C31.3922 105.538 30.8939 105.624 30.4296 105.811C29.9653 105.998 29.5456 106.281 29.1981 106.642C28.4756 107.45 28.0096 108.456 27.8595 109.531L35.8157 109.497Z" fill="#F7F7F7"/>
<path d="M44.4329 94.8506H49.7119V120.314H44.4329V94.8506Z" fill="#F7F7F7"/>
<path d="M54.2296 101.62H59.5086V120.314H54.2296V101.62ZM59.5086 97.5046C59.5086 98.0305 59.3529 98.5446 59.0613 98.9816C58.7696 99.4185 58.3553 99.7586 57.8707 99.9587C57.3862 100.159 56.8533 100.21 56.3398 100.105C55.8263 100.001 55.3553 99.7457 54.9866 99.372C54.6179 98.9984 54.3681 98.5232 54.269 98.0067C54.1698 97.4903 54.2258 96.9559 54.4297 96.4714C54.6337 95.9869 54.9764 95.5742 55.4145 95.2857C55.8525 94.9971 56.3661 94.8457 56.89 94.8507C57.5875 94.8551 58.2548 95.137 58.7456 95.6344C59.2365 96.1319 59.5108 96.8044 59.5086 97.5046V97.5046Z" fill="#F7F7F7"/>
<path d="M62.1189 101.62H67.7075L71.8906 114.142L76.0737 101.62H81.5702L74.2415 120.449H69.4393L62.1189 101.62Z" fill="#F7F7F7"/>
<path d="M91.7184 120.734C90.3953 120.745 89.0817 120.509 87.8448 120.037C86.6889 119.592 85.6356 118.915 84.7494 118.047C83.8755 117.177 83.1842 116.141 82.7164 114.998C82.2173 113.749 81.9699 112.413 81.9885 111.068V111.001C81.9814 109.715 82.2111 108.44 82.6662 107.238C83.0905 106.09 83.7326 105.034 84.5569 104.131C85.402 103.212 86.4302 102.483 87.5747 101.989C88.7192 101.496 89.9542 101.25 91.1997 101.267C92.5873 101.235 93.9638 101.522 95.2238 102.107C96.3232 102.638 97.2918 103.406 98.0599 104.358C98.8241 105.318 99.3927 106.419 99.7331 107.599C100.095 108.84 100.275 110.128 100.269 111.421C100.269 111.631 100.269 111.849 100.269 112.084C100.269 112.319 100.269 112.554 100.218 112.815H87.2341C87.4137 113.889 87.9755 114.862 88.8153 115.553C89.6744 116.186 90.7202 116.511 91.7853 116.476C92.5971 116.49 93.4031 116.336 94.1529 116.023C94.943 115.655 95.6689 115.161 96.303 114.562L99.3232 117.241C98.4587 118.322 97.3676 119.2 96.1273 119.811C94.7476 120.454 93.2391 120.77 91.7184 120.734V120.734ZM95.1234 109.497C95.0128 108.432 94.5742 107.428 93.8685 106.625C93.5285 106.26 93.1142 105.973 92.6536 105.783C92.1931 105.593 91.6971 105.505 91.1997 105.525C90.6999 105.504 90.2013 105.59 89.737 105.777C89.2726 105.963 88.853 106.247 88.5058 106.608C87.7798 107.414 87.3133 108.421 87.1672 109.497H95.1234Z" fill="#F7F7F7"/>
<path d="M103.498 101.62H108.76V105.382C109.226 104.193 109.979 103.14 110.952 102.317C112.025 101.506 113.364 101.131 114.7 101.267V106.818H114.424C113.653 106.77 112.881 106.888 112.159 107.165C111.438 107.442 110.784 107.871 110.241 108.422C109.254 109.486 108.76 111.138 108.76 113.377V120.281H103.481L103.498 101.62Z" fill="#F7F7F7"/>
<path d="M129.55 101.62H135.038L127.885 120.768C127.587 121.606 127.214 122.415 126.772 123.187C126.427 123.794 125.986 124.341 125.467 124.807C125 125.223 124.45 125.532 123.853 125.714C123.177 125.917 122.474 126.013 121.769 126C120.9 126.015 120.034 125.896 119.201 125.647C118.46 125.414 117.747 125.098 117.076 124.707L118.85 120.869C119.208 121.082 119.586 121.259 119.979 121.398C120.343 121.525 120.724 121.593 121.109 121.599C121.491 121.621 121.872 121.53 122.205 121.339C122.531 121.09 122.788 120.76 122.949 120.381L115.654 101.62H121.251L125.492 114.351L129.55 101.62Z" fill="#F7F7F7"/>
<path d="M146.19 120.734C144.929 120.747 143.68 120.489 142.526 119.978C140.871 119.241 139.466 118.036 138.483 116.51C137.499 114.984 136.98 113.204 136.988 111.387V111.311C136.978 110.07 137.214 108.84 137.682 107.692C138.57 105.435 140.311 103.624 142.526 102.653C143.682 102.148 144.93 101.894 146.19 101.905C146.973 101.897 147.754 101.981 148.516 102.157C149.181 102.306 149.824 102.537 150.432 102.846C151.002 103.132 151.537 103.482 152.03 103.887C152.505 104.281 152.958 104.702 153.385 105.147L151.612 107.037C150.91 106.304 150.124 105.658 149.269 105.113C148.332 104.542 147.253 104.251 146.157 104.273C145.292 104.269 144.435 104.453 143.647 104.811C142.872 105.16 142.175 105.663 141.597 106.289C141.01 106.932 140.55 107.682 140.242 108.498C139.913 109.369 139.748 110.295 139.757 111.227V111.294C139.749 112.231 139.919 113.16 140.259 114.032C140.582 114.853 141.053 115.607 141.648 116.258C142.236 116.891 142.944 117.399 143.731 117.753C144.558 118.118 145.454 118.301 146.358 118.29C147.431 118.313 148.49 118.049 149.428 117.526C150.326 117.012 151.142 116.363 151.846 115.603L153.519 117.207C152.646 118.216 151.607 119.068 150.449 119.726C149.141 120.429 147.673 120.777 146.19 120.734V120.734Z" fill="#F7F7F7"/>
<path d="M164.604 120.734C163.413 120.742 162.233 120.51 161.132 120.054C160.06 119.612 159.087 118.958 158.271 118.131C157.438 117.279 156.779 116.272 156.33 115.166C155.836 113.957 155.592 112.66 155.611 111.353V111.278C155.599 110.028 155.817 108.787 156.255 107.616C156.658 106.517 157.266 105.506 158.045 104.635C158.811 103.785 159.742 103.102 160.781 102.628C161.886 102.14 163.08 101.889 164.286 101.889C165.493 101.889 166.687 102.14 167.792 102.628C168.808 103.11 169.71 103.806 170.435 104.668C171.181 105.559 171.749 106.586 172.109 107.692C172.485 108.893 172.671 110.145 172.661 111.404V111.857C172.671 111.997 172.671 112.137 172.661 112.277H158.438C158.508 113.178 158.743 114.058 159.133 114.872C159.476 115.594 159.953 116.244 160.538 116.787C161.096 117.306 161.75 117.711 162.463 117.98C163.201 118.245 163.979 118.378 164.763 118.374C165.875 118.408 166.977 118.168 167.976 117.677C168.886 117.201 169.712 116.577 170.419 115.83L172.092 117.333C171.216 118.334 170.168 119.167 168.997 119.794C167.633 120.469 166.123 120.792 164.604 120.734V120.734ZM169.883 110.304C169.82 109.506 169.652 108.721 169.381 107.969C169.135 107.255 168.761 106.591 168.277 106.012C167.793 105.454 167.205 104.998 166.545 104.668C165.802 104.319 164.989 104.147 164.169 104.164C163.416 104.159 162.67 104.319 161.986 104.635C161.322 104.951 160.723 105.39 160.22 105.928C159.699 106.497 159.278 107.15 158.974 107.86C158.643 108.637 158.434 109.462 158.355 110.304H169.883Z" fill="#F7F7F7"/>
<path d="M176.593 102.283H179.27V105.424C179.874 104.429 180.677 103.571 181.629 102.905C182.754 102.172 184.08 101.81 185.419 101.872C186.409 101.855 187.392 102.032 188.314 102.392C189.132 102.726 189.868 103.233 190.472 103.879C191.071 104.542 191.532 105.319 191.828 106.163C192.149 107.106 192.307 108.098 192.296 109.094V120.289H189.619V109.758C189.698 108.313 189.239 106.891 188.331 105.768C187.862 105.268 187.289 104.877 186.653 104.624C186.017 104.372 185.333 104.263 184.65 104.307C183.919 104.301 183.195 104.438 182.516 104.71C181.866 104.964 181.278 105.357 180.793 105.861C180.299 106.377 179.915 106.988 179.663 107.658C179.391 108.397 179.258 109.18 179.27 109.968V120.314H176.593V102.283Z" fill="#F7F7F7"/>
<path d="M203.298 120.625C202.619 120.63 201.942 120.537 201.29 120.348C200.688 120.179 200.133 119.875 199.667 119.458C199.195 119.024 198.833 118.482 198.613 117.879C198.338 117.132 198.208 116.34 198.228 115.544V104.685H195.718V102.283H198.228V96.8411H200.905V102.283H206.644V104.685H200.947V115.225C200.902 115.652 200.954 116.084 201.098 116.489C201.243 116.893 201.478 117.259 201.783 117.56C202.418 118.023 203.191 118.257 203.975 118.223C204.415 118.226 204.853 118.175 205.281 118.072C205.734 117.953 206.172 117.781 206.586 117.56V119.861C206.118 120.114 205.621 120.306 205.105 120.432C204.513 120.574 203.906 120.639 203.298 120.625V120.625Z" fill="#F7F7F7"/>
<path d="M218.005 120.734C216.815 120.742 215.634 120.51 214.533 120.054C213.46 119.614 212.486 118.96 211.672 118.131C210.84 117.277 210.178 116.27 209.723 115.166C209.233 113.956 208.988 112.66 209.003 111.353V111.278C208.996 110.028 209.214 108.787 209.648 107.616C210.056 106.518 210.667 105.507 211.446 104.635C212.211 103.788 213.139 103.105 214.174 102.627C215.28 102.14 216.475 101.888 217.683 101.888C218.892 101.888 220.087 102.14 221.193 102.627C222.21 103.11 223.111 103.806 223.837 104.668C224.582 105.559 225.15 106.585 225.51 107.692C225.886 108.892 226.072 110.145 226.062 111.404V111.857C226.073 111.997 226.073 112.137 226.062 112.277H211.84C211.913 113.177 212.148 114.056 212.534 114.872C212.883 115.593 213.362 116.242 213.948 116.787C214.503 117.31 215.157 117.716 215.872 117.98C216.607 118.244 217.383 118.378 218.164 118.374C219.276 118.409 220.379 118.17 221.377 117.677C222.29 117.201 223.118 116.577 223.828 115.83L225.502 117.333C224.627 118.332 223.582 119.165 222.414 119.794C221.045 120.469 219.53 120.792 218.005 120.734V120.734ZM223.284 110.303C223.222 109.506 223.053 108.721 222.783 107.969C222.533 107.256 222.159 106.593 221.678 106.012C221.193 105.452 220.602 104.995 219.938 104.668C219.198 104.318 218.388 104.146 217.57 104.164C216.817 104.158 216.072 104.319 215.387 104.635C214.723 104.951 214.124 105.389 213.622 105.928C213.098 106.494 212.676 107.148 212.375 107.86C212.041 108.637 211.829 109.461 211.748 110.303H223.284Z" fill="#F7F7F7"/>
<path d="M229.994 102.283H232.663V106.995C232.984 106.258 233.394 105.564 233.884 104.929C234.363 104.311 234.926 103.766 235.558 103.308C236.181 102.858 236.874 102.512 237.607 102.283C238.385 102.046 239.196 101.938 240.008 101.964V104.861H239.799C238.854 104.856 237.917 105.033 237.038 105.382C236.173 105.729 235.396 106.266 234.763 106.953C234.079 107.705 233.558 108.591 233.232 109.556C232.838 110.704 232.649 111.912 232.671 113.125V120.314H230.003L229.994 102.283Z" fill="#F7F7F7"/>
<path d="M119.996 8.24411e-07C111.565 9.87423e-07 103.324 2.50977 96.3136 7.21191C89.3037 11.914 83.8402 18.5973 80.6143 26.4166C77.3883 34.2358 76.5446 42.8398 78.19 51.1403C79.8354 59.4409 83.896 67.0652 89.8581 73.0491C95.8202 79.033 103.416 83.1076 111.685 84.7577C119.954 86.4078 128.525 85.5592 136.314 82.3193C144.103 79.0794 150.759 73.5937 155.442 66.5559C160.125 59.5181 162.623 51.2444 162.622 42.781C162.622 37.1622 161.519 31.5985 159.377 26.4075C157.234 21.2165 154.095 16.5 150.136 12.5273C146.178 8.55461 141.479 5.40356 136.307 3.2541C131.136 1.10465 125.593 -0.0011022 119.996 8.24411e-07V8.24411e-07ZM143.112 43.7217C143.141 46.8134 142.555 49.8799 141.388 52.7414C140.275 55.4914 138.625 57.9899 136.536 60.09C134.433 62.1946 131.937 63.8614 129.19 64.9946C126.247 66.2013 123.092 66.8038 119.912 66.7666H101.892V37.7924H113.462V55.6221H120.021C121.491 55.6424 122.947 55.3295 124.279 54.7067C125.561 54.1155 126.702 53.2566 127.626 52.1872C128.572 51.0722 129.309 49.7947 129.801 48.4163C130.331 46.9552 130.597 45.411 130.588 43.856V43.7301C130.599 42.1448 130.333 40.5699 129.801 39.0774C129.318 37.6945 128.58 36.4153 127.626 35.3065C126.699 34.2401 125.559 33.3817 124.279 32.787C122.988 32.1962 121.583 31.898 120.163 31.9136H103.741C96.6711 31.9136 96.8552 26.4211 96.8552 26.4211V18.8626C98.5284 20.7355 101.875 20.7355 101.875 20.7355H120.28C123.326 20.7085 126.347 21.2791 129.174 22.4151C131.877 23.5069 134.332 25.1351 136.394 27.2022C138.484 29.2704 140.154 31.7261 141.313 34.4331C142.116 36.3482 142.648 38.3665 142.894 40.4295C143.031 41.4738 143.103 42.5256 143.112 43.5789V43.7217Z" fill="#F7F7F7"/>
</g>
<defs>
<clipPath id="clip0_420_567">
<rect width="240" height="126" fill="white"/>
</clipPath>
</defs>
</svg>
