<svg width="174" height="37" viewBox="0 0 174 37" fill="none" xmlns="http://www.w3.org/2000/svg">
<path d="M49.1603 23.7629C48.5755 23.7639 47.9962 23.6495 47.4557 23.4263C46.9123 23.2013 46.4211 22.8666 46.013 22.4431C45.573 21.9792 45.2265 21.4349 44.9923 20.84C44.7286 20.1291 44.6 19.3753 44.613 18.6171V18.5797C44.6005 17.8234 44.7292 17.0714 44.9923 16.3622C45.2235 15.759 45.5682 15.2058 46.0076 14.7324C46.4133 14.2996 46.9071 13.9588 47.4557 13.7332C47.9942 13.4988 48.5732 13.3718 49.1603 13.3591C49.8165 13.3339 50.4671 13.4892 51.0412 13.808C51.511 14.095 51.9314 14.4558 52.2862 14.8767V9.90723H55.129V23.5759H52.3076V22.1332C51.964 22.6004 51.5341 22.9977 51.0412 23.3034C50.4705 23.6318 49.8181 23.7911 49.1603 23.7629V23.7629ZM49.9084 21.3744C50.2342 21.3776 50.5569 21.3101 50.8542 21.1767C51.146 21.0558 51.4085 20.8736 51.6236 20.6423C51.8556 20.3846 52.0369 20.0855 52.158 19.7606C52.3018 19.3819 52.3725 18.9794 52.3664 18.5744V18.537C52.3693 18.1505 52.3023 17.7668 52.1687 17.4042C52.0463 17.0815 51.8651 16.7844 51.6343 16.5278C51.4218 16.2869 51.1592 16.0954 50.8649 15.9668C50.4173 15.7665 49.9178 15.713 49.4379 15.8137C48.9581 15.9145 48.5223 16.1645 48.1931 16.5278C47.9621 16.7822 47.7808 17.0776 47.6588 17.3988C47.5212 17.7622 47.4541 18.1485 47.461 18.537V18.5744C47.4551 18.9611 47.5221 19.3454 47.6588 19.7072C47.7779 20.033 47.9594 20.3325 48.1931 20.5889C48.4074 20.8335 48.671 21.0299 48.9666 21.1653C49.2623 21.3007 49.5832 21.372 49.9084 21.3744Z" fill="#F7F7F7"/>
<path d="M62.0808 23.8003C61.367 23.8083 60.6582 23.6814 59.9915 23.4263C59.37 23.1895 58.8039 22.8272 58.3286 22.362C57.8533 21.8969 57.479 21.3387 57.2289 20.7225C56.957 20.0433 56.8244 19.3165 56.8388 18.585V18.5476C56.8334 17.8576 56.9566 17.1727 57.2022 16.5278C57.441 15.9192 57.7948 15.3622 58.2442 14.8873C58.6825 14.411 59.2134 14.0292 59.8045 13.7652C60.468 13.4875 61.1811 13.3477 61.9003 13.3541C62.6196 13.3605 63.33 13.5131 63.9884 13.8026C64.5821 14.0852 65.1045 14.498 65.5167 15.0102C65.9279 15.526 66.233 16.1181 66.4144 16.7522C66.6103 17.4167 66.7092 18.106 66.7083 18.7988C66.7083 18.911 66.7083 19.0339 66.7083 19.1568C66.7083 19.2797 66.7083 19.4133 66.6762 19.5522H59.6655C59.7583 20.1299 60.0608 20.6531 60.5152 21.0217C60.9788 21.3617 61.5437 21.5349 62.1182 21.5133C62.5541 21.5204 62.9868 21.4386 63.39 21.2728C63.817 21.0765 64.2088 20.8111 64.5495 20.4873L66.1526 21.9301C65.6855 22.5073 65.0984 22.976 64.432 23.3034C63.6961 23.6454 62.8921 23.8153 62.0808 23.8003V23.8003ZM63.9136 17.7728C63.8569 17.2002 63.6213 16.6599 63.2403 16.2286C63.0569 16.0314 62.833 15.8763 62.584 15.7739C62.3349 15.6715 62.0667 15.6243 61.7976 15.6354C61.5281 15.6255 61.2595 15.6722 61.0091 15.7726C60.7588 15.8729 60.5323 16.0246 60.3442 16.2179C59.9559 16.6533 59.7066 17.1948 59.6281 17.7728H63.9136Z" fill="#F7F7F7"/>
<path d="M68.5571 9.90723H71.3999V23.5759H68.5571V9.90723Z" fill="#F7F7F7"/>
<path d="M73.7402 9.90723H76.7326V12.4347H73.7402V9.90723ZM73.815 13.5408H76.6578V23.5759H73.815V13.5408Z" fill="#F7F7F7"/>
<path d="M78.0846 13.5404H81.0983L83.3586 20.2625L85.6243 13.5404H88.5792L84.6304 23.6503H82.0441L78.0846 13.5404Z" fill="#F7F7F7"/>
<path d="M94.0457 23.8005C93.3337 23.808 92.6267 23.6811 91.9617 23.4265C91.3371 23.1912 90.7691 22.8271 90.2945 22.3578C89.8217 21.8931 89.449 21.3367 89.1991 20.7227C88.9254 20.0439 88.7909 19.317 88.8037 18.5853V18.5479C88.7999 17.8575 88.925 17.1725 89.1724 16.528C89.4019 15.9129 89.7465 15.3471 90.1877 14.8609C90.6279 14.3844 91.1606 14.0026 91.7533 13.7387C92.4168 13.461 93.1299 13.3212 93.8491 13.3276C94.5684 13.334 95.2788 13.4866 95.9373 13.7761C96.5309 14.0588 97.0533 14.4715 97.4655 14.9838C97.8767 15.4995 98.1818 16.0916 98.3632 16.7257C98.5573 17.3905 98.6545 18.0798 98.6518 18.7723C98.6518 18.8845 98.6518 19.0074 98.6518 19.1303C98.6518 19.2532 98.6518 19.3868 98.625 19.5257H91.6197C91.7163 20.1033 92.0203 20.6258 92.4747 20.9952C92.9377 21.3363 93.5031 21.5097 94.0777 21.4868C94.5136 21.4939 94.9463 21.4121 95.3495 21.2463C95.779 21.0515 96.1727 20.786 96.5144 20.4608L98.1174 21.9036C97.6484 22.481 97.0595 22.9495 96.3915 23.2769C95.6594 23.6273 94.8572 23.8064 94.0457 23.8005V23.8005ZM95.8838 17.7731C95.8231 17.2004 95.586 16.6608 95.2052 16.2288C95.0231 16.0315 94.8001 15.8762 94.5519 15.7738C94.3037 15.6713 94.0361 15.6242 93.7678 15.6357C93.4983 15.6257 93.2297 15.6725 92.9793 15.7728C92.729 15.8731 92.5024 16.0248 92.3144 16.2181C91.9222 16.6516 91.6707 17.1937 91.593 17.7731H95.8838Z" fill="#F7F7F7"/>
<path d="M100.383 13.5406H103.231V15.5605C103.482 14.9235 103.886 14.3583 104.407 13.9147C104.988 13.4816 105.711 13.2832 106.432 13.3589V16.3353H106.282C105.87 16.3135 105.457 16.3789 105.071 16.5271C104.685 16.6753 104.335 16.9031 104.043 17.1956C103.509 17.7727 103.231 18.665 103.231 19.8673V23.5757H100.383V13.5406Z" fill="#F7F7F7"/>
<path d="M114.426 13.5403H117.381L113.528 23.8159C113.367 24.2654 113.167 24.6999 112.93 25.1143C112.739 25.4426 112.497 25.7384 112.214 25.9907C111.961 26.2125 111.664 26.3782 111.343 26.4769C110.978 26.5829 110.6 26.6333 110.22 26.6265C109.752 26.6337 109.286 26.5706 108.836 26.4395C108.437 26.3157 108.053 26.1453 107.693 25.9319L108.649 23.8746C108.841 23.9893 109.043 24.0842 109.253 24.1578C109.449 24.2284 109.655 24.2663 109.862 24.2701C110.07 24.2806 110.276 24.2305 110.456 24.1258C110.636 23.9883 110.775 23.8033 110.856 23.5914L106.923 13.5189H109.937L112.214 20.3746L114.426 13.5403Z" fill="#F7F7F7"/>
<path d="M123.392 23.8002C122.712 23.8063 122.039 23.6698 121.415 23.3995C120.828 23.1465 120.295 22.7838 119.844 22.3308C119.396 21.8699 119.044 21.3251 118.808 20.7277C118.557 20.1155 118.43 19.46 118.433 18.7987V18.7613C118.429 18.0947 118.556 17.4337 118.808 16.8163C119.285 15.6043 120.222 14.6304 121.415 14.1071C122.039 13.8368 122.712 13.7003 123.392 13.7063C123.815 13.7011 124.236 13.7459 124.648 13.8399C125.003 13.9214 125.348 14.0452 125.674 14.2086C125.982 14.3641 126.272 14.5522 126.54 14.7697C126.797 14.9792 127.04 15.2059 127.266 15.4483L126.315 16.4583C125.932 16.0599 125.504 15.7084 125.038 15.4109C124.532 15.1135 123.952 14.9653 123.366 14.9834C122.894 14.9794 122.427 15.0778 121.998 15.272C121.58 15.4592 121.204 15.7281 120.891 16.0628C120.575 16.4089 120.327 16.8113 120.159 17.2491C119.99 17.7148 119.905 18.207 119.908 18.7025V18.7399C119.897 19.7277 120.262 20.6827 120.929 21.4117C121.247 21.7523 121.63 22.025 122.056 22.2132C122.501 22.409 122.982 22.5074 123.467 22.5018C124.046 22.515 124.618 22.3729 125.124 22.0903C125.608 21.815 126.048 21.4672 126.427 21.059L127.341 21.9086C126.868 22.4469 126.308 22.902 125.685 23.2552C124.981 23.6328 124.191 23.8206 123.392 23.8002Z" fill="#F7F7F7"/>
<path d="M133.315 23.8003C132.674 23.8037 132.038 23.6802 131.445 23.4369C130.868 23.1994 130.345 22.8487 129.906 22.4056C129.448 21.9468 129.085 21.4021 128.837 20.8026C128.574 20.151 128.443 19.4534 128.453 18.7507V18.7186C128.446 18.0478 128.562 17.3815 128.795 16.7522C129.014 16.1621 129.342 15.6184 129.762 15.1491C130.175 14.6959 130.677 14.3321 131.236 14.0804C131.821 13.8115 132.458 13.6764 133.101 13.685C133.761 13.6732 134.415 13.8102 135.014 14.0858C135.563 14.3439 136.05 14.7176 136.441 15.1812C136.836 15.6535 137.135 16.1979 137.323 16.7843C137.528 17.4285 137.629 18.1013 137.622 18.7774V19.0232C137.627 19.0979 137.627 19.1729 137.622 19.2476H129.943C129.985 19.7309 130.112 20.203 130.317 20.6423C130.506 21.029 130.763 21.3784 131.076 21.6736C131.38 21.9503 131.733 22.1662 132.118 22.3094C132.513 22.4547 132.932 22.5271 133.353 22.5232C133.951 22.5406 134.546 22.4122 135.084 22.1491C135.574 21.8923 136.019 21.5586 136.404 21.1606L137.301 21.9621C136.831 22.4982 136.268 22.9453 135.64 23.282C134.919 23.6424 134.121 23.8204 133.315 23.8003ZM136.163 18.2003C136.128 17.7733 136.036 17.3529 135.891 16.9499C135.759 16.5598 135.556 16.1974 135.292 15.8812C135.02 15.5628 134.68 15.3088 134.297 15.1379C133.915 14.9669 133.499 14.8831 133.08 14.8927C132.674 14.8875 132.273 14.9733 131.904 15.1438C131.546 15.3128 131.223 15.5485 130.953 15.8385C130.672 16.1437 130.445 16.4942 130.28 16.8751C130.105 17.2928 129.991 17.7338 129.943 18.1843L136.163 18.2003Z" fill="#F7F7F7"/>
<path d="M139.775 13.8932H141.218V15.5764C141.545 15.0467 141.978 14.5901 142.49 14.2352C143.098 13.8494 143.812 13.6626 144.531 13.7008C145.064 13.6928 145.594 13.7871 146.091 13.9787C146.532 14.1576 146.929 14.4291 147.256 14.7749C147.58 15.1309 147.827 15.5491 147.983 16.0039C148.157 16.509 148.242 17.0406 148.234 17.5748V23.5756H146.797V17.9061C146.836 17.1325 146.589 16.3714 146.102 15.7687C145.852 15.4959 145.544 15.282 145.202 15.1425C144.859 15.003 144.489 14.9413 144.12 14.9619C143.725 14.9579 143.333 15.0305 142.965 15.1756C142.618 15.3167 142.303 15.5277 142.041 15.7955C141.774 16.0727 141.567 16.4019 141.432 16.7626C141.284 17.159 141.212 17.5794 141.218 18.0023V23.5756H139.775V13.8932Z" fill="#F7F7F7"/>
<path d="M154.171 23.7412C153.809 23.7433 153.449 23.6929 153.102 23.5916C152.773 23.5017 152.471 23.3345 152.22 23.104C151.969 22.8735 151.777 22.5863 151.659 22.2664C151.513 21.8662 151.444 21.4419 151.456 21.016V15.1863H150.104V13.8931H151.456V10.9756H152.894V13.8931H155.966V15.1809H152.878V20.8397C152.852 21.0698 152.88 21.3027 152.959 21.5204C153.037 21.7381 153.165 21.9348 153.332 22.0954C153.67 22.3477 154.086 22.4743 154.507 22.4534C154.745 22.455 154.982 22.4281 155.213 22.3733C155.457 22.3102 155.692 22.2169 155.913 22.0954V23.3298C155.662 23.4681 155.395 23.5724 155.117 23.6397C154.807 23.7118 154.489 23.7459 154.171 23.7412V23.7412Z" fill="#F7F7F7"/>
<path d="M162.09 23.8002C161.449 23.8032 160.813 23.6797 160.22 23.4369C159.651 23.1968 159.135 22.8463 158.702 22.4056C158.244 21.9468 157.881 21.402 157.633 20.8025C157.37 20.151 157.239 19.4534 157.249 18.7506V18.7186C157.242 18.0472 157.359 17.3804 157.596 16.7521C157.811 16.1614 158.138 15.6172 158.558 15.1491C158.973 14.6981 159.475 14.3348 160.033 14.0804C160.617 13.812 161.254 13.6769 161.898 13.685C162.559 13.6737 163.214 13.8106 163.816 14.0857C164.362 14.3454 164.847 14.7188 165.237 15.1812C165.632 15.6534 165.932 16.1978 166.119 16.7842C166.326 17.4282 166.429 18.101 166.423 18.7773V19.0231C166.428 19.0979 166.428 19.1728 166.423 19.2476H158.702C158.739 19.7317 158.865 20.2048 159.076 20.6422C159.261 21.0299 159.516 21.3796 159.83 21.6735C160.142 21.9518 160.505 22.1676 160.898 22.3094C161.293 22.4546 161.712 22.527 162.133 22.5231C162.732 22.5405 163.326 22.4122 163.864 22.1491C164.355 21.8936 164.801 21.5597 165.184 21.1605L166.081 21.9621C165.611 22.4982 165.048 22.9452 164.42 23.2819C163.697 23.6432 162.897 23.8212 162.09 23.8002V23.8002ZM164.938 18.2002C164.902 17.7733 164.811 17.3529 164.665 16.9499C164.534 16.5597 164.331 16.1974 164.067 15.8812C163.811 15.5795 163.494 15.3354 163.137 15.1651C162.736 14.9765 162.298 14.8833 161.855 14.8926C161.449 14.8874 161.047 14.9732 160.679 15.1437C160.321 15.3127 159.998 15.5485 159.728 15.8384C159.447 16.1437 159.219 16.4941 159.055 16.875C158.879 17.2922 158.767 17.7336 158.723 18.1842L164.938 18.2002Z" fill="#F7F7F7"/>
<path d="M168.55 13.8932H169.993V16.4207C170.164 16.0264 170.383 15.6549 170.645 15.3146C170.895 14.978 171.191 14.6793 171.527 14.4276C171.862 14.1902 172.234 14.0097 172.627 13.8932C173.046 13.7644 173.483 13.7066 173.92 13.7222V15.2825H173.808C173.3 15.2786 172.795 15.373 172.323 15.5604C171.855 15.7461 171.435 16.0346 171.094 16.4047C170.727 16.8083 170.447 17.283 170.271 17.7993C170.06 18.4164 169.959 19.0656 169.972 19.7176V23.5756H168.529L168.55 13.8932Z" fill="#F7F7F7"/>
<path d="M18.1946 2.51948e-06C13.3691 2.51948e-06 8.74124 1.91693 5.32908 5.32909C1.91693 8.74124 0 13.3691 0 18.1946C0 23.0202 1.91693 27.648 5.32908 31.0602C8.74124 34.4723 13.3691 36.3893 18.1946 36.3893C19.508 36.3879 20.8174 36.2464 22.1007 35.9671C26.4837 35.0062 30.3569 32.4596 32.9765 28.8166C35.596 25.1735 36.7769 20.691 36.2925 16.2302C35.808 11.7694 33.6923 7.64492 30.3518 4.64916C27.0113 1.65339 22.6817 -0.00235753 18.1946 2.51948e-06V2.51948e-06ZM28.3206 17.7137C28.3296 19.0217 28.079 20.3185 27.5832 21.529C27.1119 22.691 26.4123 23.7466 25.5259 24.6336C24.6333 25.5247 23.575 26.2326 22.4107 26.7175C21.1607 27.2261 19.8219 27.4805 18.4725 27.4656H10.8259V15.1969H15.7366V22.742H18.5259C19.1497 22.7504 19.7673 22.617 20.332 22.3519C20.8712 22.0997 21.3503 21.7353 21.7374 21.2832C22.1401 20.8092 22.4533 20.2661 22.6618 19.6801C22.8883 19.0643 23.0024 18.4127 22.9984 17.7565V17.703C23.0033 17.0311 22.8893 16.3636 22.6618 15.7313C22.4589 15.1428 22.1451 14.5986 21.7374 14.1282C21.3494 13.677 20.8705 13.3129 20.332 13.0595C19.785 12.8043 19.1884 12.673 18.5847 12.6748H11.6382C8.64045 12.6748 8.71526 10.3504 8.71526 10.3504V7.14427C9.41525 7.93511 10.8527 7.93511 10.8527 7.93511H18.6595C19.9574 7.93424 21.2428 8.18842 22.4427 8.6832C23.584 9.14259 24.6228 9.82366 25.4992 10.687C26.3797 11.5696 27.0802 12.6149 27.5618 13.7649C27.9031 14.5755 28.1297 15.4298 28.2351 16.303C28.2907 16.7444 28.3192 17.1887 28.3206 17.6336V17.7137Z" fill="#F7F7F7"/>
</svg>
