<svg width="27" height="16" viewBox="0 0 27 16" fill="none" xmlns="http://www.w3.org/2000/svg">
<g clip-path="url(#clip0)">
<path d="M20.7022 0C18.872 0 17.3219 0.60216 16.2228 1.75107C16.1683 1.80807 16.0974 1.84777 16.0194 1.86497C15.9414 1.88227 15.8599 1.87637 15.7854 1.84797C15.7109 1.81967 15.6469 1.77017 15.6017 1.70597C15.5565 1.64177 15.5322 1.56587 15.532 1.48807V0.581389C15.532 0.478599 15.49 0.38001 15.4152 0.30733C15.3404 0.23464 15.239 0.1938 15.1332 0.1938H10.9078C10.802 0.1938 10.7006 0.23464 10.6258 0.30733C10.551 0.38001 10.509 0.478599 10.509 0.581389V7.43587C10.4496 9.40617 9.3648 10.7928 7.5654 10.8204C6.0533 10.8204 5.0824 9.79377 5.0824 8.10267V0.581389C5.0824 0.478599 5.0404 0.38001 4.9656 0.30733C4.8908 0.23464 4.7894 0.1938 4.6836 0.1938H0.3988C0.293 0.1938 0.1916 0.23464 0.1168 0.30733C0.0420003 0.38001 0 0.478599 0 0.581389V9.51687C0 13.0145 2.1697 15.2617 5.5097 15.2617C7.2758 15.2386 8.7096 14.6618 9.7517 13.5313C9.8053 13.4723 9.8761 13.4305 9.9547 13.4115C10.0333 13.3925 10.1159 13.3973 10.1917 13.4251C10.2675 13.4529 10.3327 13.5024 10.3788 13.5672C10.4249 13.6319 10.4496 13.7087 10.4496 13.7874V14.6526C10.4496 14.7554 10.4917 14.854 10.5664 14.9267C10.6412 14.9993 10.7427 15.0402 10.8484 15.0402H15.1332C15.239 15.0402 15.3404 14.9993 15.4152 14.9267C15.49 14.854 15.532 14.7554 15.532 14.6526V7.26977C15.7314 5.57867 16.9041 4.43887 18.618 4.41127C20.218 4.41127 21.2459 5.46557 21.2459 7.15897V14.6526C21.2459 14.7546 21.2872 14.8525 21.361 14.925C21.4347 14.9976 21.535 15.039 21.6399 15.0402H25.9128C26.0182 15.0396 26.119 14.9985 26.1933 14.9258C26.2676 14.8532 26.3092 14.755 26.3092 14.6526V5.74477C26.3092 2.21947 24.0826 0 20.7141 0" fill="#F7552B"/>
</g>
<defs>
<clipPath id="clip0">
<rect width="26.3092" height="15.2617" fill="white"/>
</clipPath>
</defs>
</svg>
