<svg width="110" height="49" viewBox="0 0 110 49" fill="none" xmlns="http://www.w3.org/2000/svg">
<path d="M39.2608 9.41772C35.7885 9.41772 32.8511 10.5937 30.7667 12.8346C30.6638 12.9456 30.53 13.0232 30.3826 13.0574C30.2352 13.0916 30.0809 13.0809 29.9397 13.0265C29.7984 12.9722 29.6767 12.8768 29.5902 12.7526C29.5037 12.6284 29.4564 12.4812 29.4544 12.3299V10.5735C29.4544 10.3736 29.3754 10.1818 29.2345 10.04C29.0936 9.89812 28.9023 9.81777 28.7024 9.81644H20.6928C20.492 9.81644 20.2995 9.8962 20.1575 10.0382C20.0155 10.1802 19.9358 10.3727 19.9358 10.5735V23.9481C19.8247 27.7939 17.7655 30.5092 14.3537 30.5547C11.487 30.5547 9.64487 28.5359 9.64487 25.2502V10.5735C9.64487 10.3727 9.56511 10.1802 9.42313 10.0382C9.28116 9.8962 9.0886 9.81644 8.88781 9.81644H0.757054C0.556271 9.81644 0.363711 9.8962 0.221736 10.0382C0.0797608 10.1802 0 10.3727 0 10.5735L0 27.9908C0 34.7992 4.11333 39.2002 10.4524 39.2002C13.7986 39.1548 16.5088 38.0293 18.4974 35.8238C18.5982 35.7063 18.7329 35.6229 18.883 35.5848C19.0331 35.5468 19.1913 35.556 19.336 35.6112C19.4806 35.6664 19.6047 35.7649 19.6913 35.8933C19.7779 36.0217 19.8227 36.1737 19.8197 36.3285V38.0192C19.8197 38.22 19.8994 38.4126 20.0414 38.5545C20.1834 38.6965 20.3759 38.7763 20.5767 38.7763H28.7024C28.9023 38.7749 29.0936 38.6946 29.2345 38.5528C29.3754 38.4109 29.4544 38.2191 29.4544 38.0192V23.6049C29.838 20.3042 32.0587 18.0835 35.309 18.0532C38.3372 18.0532 40.2904 20.1124 40.2904 23.4131V38.0495C40.2904 38.2503 40.3702 38.4429 40.5121 38.5848C40.6541 38.7268 40.8467 38.8066 41.0475 38.8066H49.1227C49.3235 38.8066 49.5161 38.7268 49.658 38.5848C49.8 38.4429 49.8798 38.2503 49.8798 38.0495V20.6272C49.8747 13.7481 45.6504 9.41772 39.2608 9.41772Z" fill="#453DFF"/>
<path d="M60.4634 11.4062H52.3932C51.9751 11.4062 51.6361 11.7452 51.6361 12.1633V38.0041C51.6361 38.4222 51.9751 38.7611 52.3932 38.7611H60.4634C60.8815 38.7611 61.2204 38.4222 61.2204 38.0041V12.1633C61.2204 11.7452 60.8815 11.4062 60.4634 11.4062Z" fill="#453DFF"/>
<path d="M101.173 9.67523C100.973 9.67523 100.781 9.7543 100.639 9.89518C100.497 10.0361 100.417 10.2273 100.416 10.4272V21.0967C100.416 25.215 98.7754 27.5417 95.2022 27.5417C92.1134 27.5417 90.3772 25.8661 90.3772 22.5603V10.4474C90.3759 10.2475 90.2955 10.0563 90.1537 9.91537C90.0118 9.77449 89.8201 9.69542 89.6201 9.69542H73.182C72.9812 9.69542 72.7886 9.61566 72.6467 9.47369C72.5047 9.33171 72.4249 9.13915 72.4249 8.93837V2.44284C72.4249 2.24206 72.3452 2.0495 72.2032 1.90753C72.0612 1.76555 71.8687 1.68579 71.6679 1.68579H63.5926C63.3918 1.68579 63.1993 1.76555 63.0573 1.90753C62.9153 2.0495 62.8356 2.24206 62.8356 2.44284V29.6968C62.8356 35.7532 66.9489 39.1196 72.6369 39.0641C75.1857 39.0878 77.7056 38.523 80.0005 37.4137C80.1549 37.3342 80.2772 37.2041 80.3471 37.0451C80.4169 36.8861 80.43 36.708 80.3841 36.5406L78.9204 31.115C78.8917 31.0127 78.842 30.9175 78.7743 30.8355C78.7066 30.7536 78.6225 30.6867 78.5275 30.6392C78.4324 30.5916 78.3285 30.5645 78.2223 30.5595C78.1162 30.5546 78.0101 30.5719 77.911 30.6103C77.0155 30.9901 76.061 31.2121 75.0898 31.2664C73.4141 31.3219 72.4401 30.3479 72.4401 28.1827V18.2956C72.4414 18.0956 72.5217 17.9044 72.6636 17.7635C72.8054 17.6226 72.9972 17.5435 73.1971 17.5435H79.9803C80.0806 17.5415 80.1802 17.5595 80.2735 17.5963C80.3668 17.6331 80.4518 17.6881 80.5237 17.7581C80.5955 17.8281 80.6527 17.9116 80.692 18.0039C80.7313 18.0961 80.7519 18.1953 80.7525 18.2956V24.998C80.7525 31.8721 84.9769 36.2024 91.6894 36.2024C95.081 36.2024 97.1301 35.087 99.1085 32.9622C99.2107 32.8476 99.3453 32.7667 99.4944 32.7303C99.6436 32.6939 99.8003 32.7038 99.9438 32.7585C100.087 32.8133 100.211 32.9103 100.298 33.0369C100.385 33.1634 100.431 33.3134 100.431 33.4669V34.7034C100.431 38.5997 97.7711 41.1434 93.5467 41.1434C90.4107 40.9731 87.349 40.1242 84.5731 38.6553C84.4771 38.6041 84.3711 38.5743 84.2625 38.5681C84.1539 38.5618 84.0452 38.5792 83.944 38.619C83.8428 38.6588 83.7514 38.7202 83.6761 38.7987C83.6009 38.8773 83.5436 38.9713 83.5082 39.0742L81.6559 44.3887C81.5999 44.5534 81.6018 44.7323 81.6615 44.8957C81.7212 45.0592 81.835 45.1972 81.984 45.2871C85.8081 47.4653 90.1112 48.665 94.5107 48.7796C103.595 48.8301 110 43.1673 110 34.8851V10.4272C109.999 10.2273 109.918 10.0361 109.777 9.89518C109.635 9.7543 109.443 9.67523 109.243 9.67523H101.173Z" fill="#453DFF"/>
<path d="M61.0691 4.79467C61.0691 6.0663 60.5639 7.28585 59.6648 8.18502C58.7656 9.0842 57.546 9.58935 56.2744 9.58935C55.0028 9.58935 53.7832 9.0842 52.8841 8.18502C51.9849 7.28585 51.4797 6.0663 51.4797 4.79467C51.4797 3.52305 51.9849 2.3035 52.8841 1.40433C53.7832 0.505152 55.0028 0 56.2744 0C57.546 0 58.7656 0.505152 59.6648 1.40433C60.5639 2.3035 61.0691 3.52305 61.0691 4.79467V4.79467Z" fill="#453DFF"/>
</svg>
