<svg width="525" height="524" viewBox="0 0 525 524" fill="none" xmlns="http://www.w3.org/2000/svg">
<circle cx="262.492" cy="262" r="261.5" fill="#150FAF" stroke="#150FAF"/>
<circle cx="262.992" cy="262.5" r="203.5" fill="#1A14C6"/>
<circle cx="262.492" cy="262" r="145" fill="#1D16D6"/>
<ellipse cx="262.492" cy="262.5" rx="98" ry="97.5" fill="#231BE6"/>
<circle cx="53.3531" cy="479.9" r="3.09989" transform="rotate(-180 53.3531 479.9)" fill="#0C069B"/>
<circle cx="40.0995" cy="479.9" r="3.09989" transform="rotate(-180 40.0995 479.9)" fill="#0C069B"/>
<circle cx="26.8457" cy="479.9" r="3.09989" transform="rotate(-180 26.8457 479.9)" fill="#0C069B"/>
<circle cx="13.5919" cy="479.9" r="3.09989" transform="rotate(-180 13.5919 479.9)" fill="#0C069B"/>
<circle cx="53.3531" cy="467.156" r="3.09989" transform="rotate(-180 53.3531 467.156)" fill="#0C069B"/>
<circle cx="40.0995" cy="467.156" r="3.09989" transform="rotate(-180 40.0995 467.156)" fill="#0C069B"/>
<circle cx="26.8457" cy="467.156" r="3.09989" transform="rotate(-180 26.8457 467.156)" fill="#0C069B"/>
<circle cx="13.5919" cy="467.156" r="3.09989" transform="rotate(-180 13.5919 467.156)" fill="#0C069B"/>
<circle cx="53.3531" cy="438.1" r="3.09989" transform="rotate(-180 53.3531 438.1)" fill="#0C069B"/>
<circle cx="40.0995" cy="438.1" r="3.09989" transform="rotate(-180 40.0995 438.1)" fill="#0C069B"/>
<circle cx="26.8457" cy="438.1" r="3.09989" transform="rotate(-180 26.8457 438.1)" fill="#0C069B"/>
<circle cx="13.5919" cy="438.1" r="3.09989" transform="rotate(-180 13.5919 438.1)" fill="#0C069B"/>
<circle cx="53.3531" cy="452.373" r="3.09989" transform="rotate(-180 53.3531 452.373)" fill="#0C069B"/>
<circle cx="40.0995" cy="452.373" r="3.09989" transform="rotate(-180 40.0995 452.373)" fill="#0C069B"/>
<circle cx="26.8457" cy="452.373" r="3.09989" transform="rotate(-180 26.8457 452.373)" fill="#0C069B"/>
<circle cx="13.5919" cy="452.373" r="3.09989" transform="rotate(-180 13.5919 452.373)" fill="#0C069B"/>
<circle cx="105.861" cy="479.9" r="3.09989" transform="rotate(-180 105.861 479.9)" fill="#0C069B"/>
<circle cx="92.6073" cy="479.9" r="3.09989" transform="rotate(-180 92.6073 479.9)" fill="#0C069B"/>
<circle cx="79.3535" cy="479.9" r="3.09989" transform="rotate(-180 79.3535 479.9)" fill="#0C069B"/>
<circle cx="66.0998" cy="479.9" r="3.09989" transform="rotate(-180 66.0998 479.9)" fill="#0C069B"/>
<circle cx="105.861" cy="467.156" r="3.09989" transform="rotate(-180 105.861 467.156)" fill="#0C069B"/>
<circle cx="92.6073" cy="467.156" r="3.09989" transform="rotate(-180 92.6073 467.156)" fill="#0C069B"/>
<circle cx="79.3535" cy="467.156" r="3.09989" transform="rotate(-180 79.3535 467.156)" fill="#0C069B"/>
<circle cx="66.0998" cy="467.156" r="3.09989" transform="rotate(-180 66.0998 467.156)" fill="#0C069B"/>
<circle cx="105.861" cy="438.1" r="3.09989" transform="rotate(-180 105.861 438.1)" fill="#0C069B"/>
<circle cx="92.6073" cy="438.1" r="3.09989" transform="rotate(-180 92.6073 438.1)" fill="#0C069B"/>
<circle cx="79.3535" cy="438.1" r="3.09989" transform="rotate(-180 79.3535 438.1)" fill="#0C069B"/>
<circle cx="66.0998" cy="438.1" r="3.09989" transform="rotate(-180 66.0998 438.1)" fill="#0C069B"/>
<circle cx="105.861" cy="452.373" r="3.09989" transform="rotate(-180 105.861 452.373)" fill="#0C069B"/>
<circle cx="92.6073" cy="452.373" r="3.09989" transform="rotate(-180 92.6073 452.373)" fill="#0C069B"/>
<circle cx="79.3535" cy="452.373" r="3.09989" transform="rotate(-180 79.3535 452.373)" fill="#0C069B"/>
<circle cx="66.0998" cy="452.373" r="3.09989" transform="rotate(-180 66.0998 452.373)" fill="#0C069B"/>
<circle cx="55.8612" cy="113.9" r="3.09989" transform="rotate(-180 55.8612 113.9)" fill="#453DFF"/>
<circle cx="42.6074" cy="113.9" r="3.09989" transform="rotate(-180 42.6074 113.9)" fill="#453DFF"/>
<circle cx="29.3536" cy="113.9" r="3.09989" transform="rotate(-180 29.3536 113.9)" fill="#453DFF"/>
<circle cx="16.0999" cy="113.9" r="3.09989" transform="rotate(-180 16.0999 113.9)" fill="#453DFF"/>
<circle cx="55.8612" cy="101.156" r="3.09989" transform="rotate(-180 55.8612 101.156)" fill="#453DFF"/>
<circle cx="42.6074" cy="101.156" r="3.09989" transform="rotate(-180 42.6074 101.156)" fill="#453DFF"/>
<circle cx="29.3536" cy="101.156" r="3.09989" transform="rotate(-180 29.3536 101.156)" fill="#453DFF"/>
<circle cx="16.0999" cy="101.156" r="3.09989" transform="rotate(-180 16.0999 101.156)" fill="#453DFF"/>
<circle cx="55.8612" cy="72.0998" r="3.09989" transform="rotate(-180 55.8612 72.0998)" fill="#453DFF"/>
<circle cx="42.6074" cy="72.0998" r="3.09989" transform="rotate(-180 42.6074 72.0998)" fill="#453DFF"/>
<circle cx="29.3536" cy="72.0998" r="3.09989" transform="rotate(-180 29.3536 72.0998)" fill="#453DFF"/>
<circle cx="16.0999" cy="72.0998" r="3.09989" transform="rotate(-180 16.0999 72.0998)" fill="#453DFF"/>
<circle cx="55.8612" cy="86.373" r="3.09989" transform="rotate(-180 55.8612 86.373)" fill="#453DFF"/>
<circle cx="42.6074" cy="86.373" r="3.09989" transform="rotate(-180 42.6074 86.373)" fill="#453DFF"/>
<circle cx="29.3536" cy="86.373" r="3.09989" transform="rotate(-180 29.3536 86.373)" fill="#453DFF"/>
<circle cx="16.0999" cy="86.373" r="3.09989" transform="rotate(-180 16.0999 86.373)" fill="#453DFF"/>
<circle cx="511.861" cy="385.9" r="3.09989" transform="rotate(-180 511.861 385.9)" fill="#0C069B"/>
<circle cx="498.608" cy="385.9" r="3.09989" transform="rotate(-180 498.608 385.9)" fill="#0C069B"/>
<circle cx="485.354" cy="385.9" r="3.09989" transform="rotate(-180 485.354 385.9)" fill="#0C069B"/>
<circle cx="472.1" cy="385.9" r="3.09989" transform="rotate(-180 472.1 385.9)" fill="#0C069B"/>
<circle cx="511.861" cy="373.156" r="3.09989" transform="rotate(-180 511.861 373.156)" fill="#0C069B"/>
<circle cx="498.608" cy="373.156" r="3.09989" transform="rotate(-180 498.608 373.156)" fill="#0C069B"/>
<circle cx="485.354" cy="373.156" r="3.09989" transform="rotate(-180 485.354 373.156)" fill="#0C069B"/>
<circle cx="472.1" cy="373.156" r="3.09989" transform="rotate(-180 472.1 373.156)" fill="#0C069B"/>
<circle cx="511.861" cy="344.1" r="3.09989" transform="rotate(-180 511.861 344.1)" fill="#0C069B"/>
<circle cx="498.608" cy="344.1" r="3.09989" transform="rotate(-180 498.608 344.1)" fill="#0C069B"/>
<circle cx="485.354" cy="344.1" r="3.09989" transform="rotate(-180 485.354 344.1)" fill="#0C069B"/>
<circle cx="472.1" cy="344.1" r="3.09989" transform="rotate(-180 472.1 344.1)" fill="#0C069B"/>
<circle cx="511.861" cy="358.373" r="3.09989" transform="rotate(-180 511.861 358.373)" fill="#0C069B"/>
<circle cx="498.608" cy="358.373" r="3.09989" transform="rotate(-180 498.608 358.373)" fill="#0C069B"/>
<circle cx="485.354" cy="358.373" r="3.09989" transform="rotate(-180 485.354 358.373)" fill="#0C069B"/>
<circle cx="472.1" cy="358.373" r="3.09989" transform="rotate(-180 472.1 358.373)" fill="#0C069B"/>
<circle cx="432.1" cy="10.0999" r="3.09989" fill="#453DFF"/>
<circle cx="445.353" cy="10.0999" r="3.09989" fill="#453DFF"/>
<circle cx="458.607" cy="10.0999" r="3.09989" fill="#453DFF"/>
<circle cx="471.861" cy="10.0999" r="3.09989" fill="#453DFF"/>
<circle cx="432.1" cy="22.844" r="3.09989" fill="#453DFF"/>
<circle cx="445.353" cy="22.844" r="3.09989" fill="#453DFF"/>
<circle cx="458.607" cy="22.844" r="3.09989" fill="#453DFF"/>
<circle cx="471.861" cy="22.844" r="3.09989" fill="#453DFF"/>
<circle cx="432.1" cy="51.9002" r="3.09989" fill="#453DFF"/>
<circle cx="445.353" cy="51.9002" r="3.09989" fill="#453DFF"/>
<circle cx="458.607" cy="51.9002" r="3.09989" fill="#453DFF"/>
<circle cx="471.861" cy="51.9002" r="3.09989" fill="#453DFF"/>
<circle cx="432.1" cy="37.627" r="3.09989" fill="#453DFF"/>
<circle cx="445.353" cy="37.627" r="3.09989" fill="#453DFF"/>
<circle cx="458.607" cy="37.627" r="3.09989" fill="#453DFF"/>
<circle cx="471.861" cy="37.627" r="3.09989" fill="#453DFF"/>
<circle cx="379.592" cy="10.0999" r="3.09989" fill="#453DFF"/>
<circle cx="392.846" cy="10.0999" r="3.09989" fill="#453DFF"/>
<circle cx="406.099" cy="10.0999" r="3.09989" fill="#453DFF"/>
<circle cx="419.353" cy="10.0999" r="3.09989" fill="#453DFF"/>
<circle cx="379.592" cy="22.844" r="3.09989" fill="#453DFF"/>
<circle cx="392.846" cy="22.844" r="3.09989" fill="#453DFF"/>
<circle cx="406.099" cy="22.844" r="3.09989" fill="#453DFF"/>
<circle cx="419.353" cy="22.844" r="3.09989" fill="#453DFF"/>
<circle cx="379.592" cy="51.9002" r="3.09989" fill="#453DFF"/>
<circle cx="392.846" cy="51.9002" r="3.09989" fill="#453DFF"/>
<circle cx="406.099" cy="51.9002" r="3.09989" fill="#453DFF"/>
<circle cx="419.353" cy="51.9002" r="3.09989" fill="#453DFF"/>
<circle cx="379.592" cy="37.627" r="3.09989" fill="#453DFF"/>
<circle cx="392.846" cy="37.627" r="3.09989" fill="#453DFF"/>
<circle cx="406.099" cy="37.627" r="3.09989" fill="#453DFF"/>
<circle cx="419.353" cy="37.627" r="3.09989" fill="#453DFF"/>
<circle cx="331.1" cy="463.861" r="3.09989" transform="rotate(-90 331.1 463.861)" fill="#453DFF"/>
<circle cx="331.1" cy="450.608" r="3.09989" transform="rotate(-90 331.1 450.608)" fill="#453DFF"/>
<circle cx="331.1" cy="437.354" r="3.09989" transform="rotate(-90 331.1 437.354)" fill="#453DFF"/>
<circle cx="331.1" cy="424.1" r="3.09989" transform="rotate(-90 331.1 424.1)" fill="#453DFF"/>
<circle cx="343.844" cy="463.861" r="3.09989" transform="rotate(-90 343.844 463.861)" fill="#453DFF"/>
<circle cx="343.844" cy="450.608" r="3.09989" transform="rotate(-90 343.844 450.608)" fill="#453DFF"/>
<circle cx="343.844" cy="437.354" r="3.09989" transform="rotate(-90 343.844 437.354)" fill="#453DFF"/>
<circle cx="343.844" cy="424.1" r="3.09989" transform="rotate(-90 343.844 424.1)" fill="#453DFF"/>
<circle cx="372.9" cy="463.861" r="3.09989" transform="rotate(-90 372.9 463.861)" fill="#453DFF"/>
<circle cx="372.9" cy="450.608" r="3.09989" transform="rotate(-90 372.9 450.608)" fill="#453DFF"/>
<circle cx="372.9" cy="437.354" r="3.09989" transform="rotate(-90 372.9 437.354)" fill="#453DFF"/>
<circle cx="372.9" cy="424.1" r="3.09989" transform="rotate(-90 372.9 424.1)" fill="#453DFF"/>
<circle cx="358.627" cy="463.861" r="3.09989" transform="rotate(-90 358.627 463.861)" fill="#453DFF"/>
<circle cx="358.627" cy="450.608" r="3.09989" transform="rotate(-90 358.627 450.608)" fill="#453DFF"/>
<circle cx="358.627" cy="437.354" r="3.09989" transform="rotate(-90 358.627 437.354)" fill="#453DFF"/>
<circle cx="358.627" cy="424.1" r="3.09989" transform="rotate(-90 358.627 424.1)" fill="#453DFF"/>
<circle cx="331.1" cy="516.369" r="3.09989" transform="rotate(-90 331.1 516.369)" fill="#453DFF"/>
<circle cx="331.1" cy="503.115" r="3.09989" transform="rotate(-90 331.1 503.115)" fill="#453DFF"/>
<circle cx="331.1" cy="489.862" r="3.09989" transform="rotate(-90 331.1 489.862)" fill="#453DFF"/>
<circle cx="331.1" cy="476.608" r="3.09989" transform="rotate(-90 331.1 476.608)" fill="#453DFF"/>
<circle cx="343.844" cy="516.369" r="3.09989" transform="rotate(-90 343.844 516.369)" fill="#453DFF"/>
<circle cx="343.844" cy="503.115" r="3.09989" transform="rotate(-90 343.844 503.115)" fill="#453DFF"/>
<circle cx="343.844" cy="489.862" r="3.09989" transform="rotate(-90 343.844 489.862)" fill="#453DFF"/>
<circle cx="343.844" cy="476.608" r="3.09989" transform="rotate(-90 343.844 476.608)" fill="#453DFF"/>
<circle cx="372.9" cy="516.369" r="3.09989" transform="rotate(-90 372.9 516.369)" fill="#453DFF"/>
<circle cx="372.9" cy="503.115" r="3.09989" transform="rotate(-90 372.9 503.115)" fill="#453DFF"/>
<circle cx="372.9" cy="489.862" r="3.09989" transform="rotate(-90 372.9 489.862)" fill="#453DFF"/>
<circle cx="372.9" cy="476.608" r="3.09989" transform="rotate(-90 372.9 476.608)" fill="#453DFF"/>
<circle cx="358.627" cy="516.369" r="3.09989" transform="rotate(-90 358.627 516.369)" fill="#453DFF"/>
<circle cx="358.627" cy="503.115" r="3.09989" transform="rotate(-90 358.627 503.115)" fill="#453DFF"/>
<circle cx="358.627" cy="489.862" r="3.09989" transform="rotate(-90 358.627 489.862)" fill="#453DFF"/>
<circle cx="358.627" cy="476.608" r="3.09989" transform="rotate(-90 358.627 476.608)" fill="#453DFF"/>
</svg>
