<svg width="503" height="324" viewBox="0 0 503 324" fill="none" xmlns="http://www.w3.org/2000/svg">
<path d="M446.651 277.762C446.651 276.657 447.547 275.762 448.651 275.762C449.756 275.762 450.651 276.657 450.651 277.762H446.651ZM450.651 269.982C450.651 271.087 449.756 271.982 448.651 271.982C447.547 271.982 446.651 271.087 446.651 269.982H450.651ZM446.651 269.01C446.651 267.905 447.547 267.01 448.651 267.01C449.756 267.01 450.651 267.905 450.651 269.01H446.651ZM450.651 261.231C450.651 262.335 449.756 263.231 448.651 263.231C447.547 263.231 446.651 262.335 446.651 261.231H450.651ZM446.651 260.258C446.651 259.154 447.547 258.258 448.651 258.258C449.756 258.258 450.651 259.154 450.651 260.258H446.651ZM450.651 252.479C450.651 253.584 449.756 254.479 448.651 254.479C447.547 254.479 446.651 253.584 446.651 252.479H450.651ZM446.651 251.507C446.651 250.402 447.547 249.507 448.651 249.507C449.756 249.507 450.651 250.402 450.651 251.507H446.651ZM450.651 243.728C450.651 244.832 449.756 245.728 448.651 245.728C447.547 245.728 446.651 244.832 446.651 243.728H450.651ZM446.651 242.755C446.651 241.651 447.547 240.755 448.651 240.755C449.756 240.755 450.651 241.651 450.651 242.755H446.651ZM450.651 234.976C450.651 236.081 449.756 236.976 448.651 236.976C447.547 236.976 446.651 236.081 446.651 234.976H450.651ZM446.651 234.004C446.651 232.899 447.547 232.004 448.651 232.004C449.756 232.004 450.651 232.899 450.651 234.004H446.651ZM450.651 226.224C450.651 227.329 449.756 228.224 448.651 228.224C447.547 228.224 446.651 227.329 446.651 226.224H450.651ZM446.651 225.252C446.651 224.148 447.547 223.252 448.651 223.252C449.756 223.252 450.651 224.148 450.651 225.252H446.651ZM450.651 217.473C450.651 218.577 449.756 219.473 448.651 219.473C447.547 219.473 446.651 218.577 446.651 217.473H450.651ZM446.651 216.5C446.651 215.396 447.547 214.5 448.651 214.5C449.756 214.5 450.651 215.396 450.651 216.5H446.651ZM450.651 208.721C450.651 209.826 449.756 210.721 448.651 210.721C447.547 210.721 446.651 209.826 446.651 208.721H450.651ZM446.651 207.749C446.651 206.644 447.547 205.749 448.651 205.749C449.756 205.749 450.651 206.644 450.651 207.749H446.651ZM450.651 199.97C450.651 201.074 449.756 201.97 448.651 201.97C447.547 201.97 446.651 201.074 446.651 199.97H450.651ZM446.651 198.997C446.651 197.893 447.547 196.997 448.651 196.997C449.756 196.997 450.651 197.893 450.651 198.997H446.651ZM450.651 191.218C450.651 192.323 449.756 193.218 448.651 193.218C447.547 193.218 446.651 192.323 446.651 191.218H450.651ZM446.648 190.293C446.632 189.189 447.515 188.281 448.619 188.265C449.724 188.249 450.632 189.131 450.648 190.236L446.648 190.293ZM449.625 182.409C449.894 183.481 449.245 184.567 448.173 184.837C447.102 185.107 446.015 184.457 445.746 183.386L449.625 182.409ZM445.52 182.542C445.22 181.479 445.837 180.374 446.9 180.073C447.963 179.772 449.068 180.39 449.369 181.453L445.52 182.542ZM446.345 174.158C446.884 175.122 446.539 176.34 445.575 176.88C444.611 177.419 443.393 177.074 442.854 176.11L446.345 174.158ZM442.417 175.355C441.85 174.407 442.158 173.179 443.106 172.612C444.054 172.045 445.282 172.354 445.849 173.302L442.417 175.355ZM441.04 167.042C441.81 167.835 441.791 169.101 440.999 169.871C440.207 170.64 438.941 170.622 438.171 169.83L441.04 167.042ZM437.554 169.212C436.761 168.443 436.743 167.176 437.513 166.384C438.282 165.592 439.549 165.574 440.341 166.343L437.554 169.212ZM434.082 161.534C435.03 162.101 435.338 163.329 434.771 164.277C434.204 165.225 432.976 165.534 432.028 164.967L434.082 161.534ZM431.273 164.53C430.309 163.991 429.965 162.772 430.504 161.808C431.043 160.844 432.262 160.499 433.226 161.039L431.273 164.53ZM425.931 158.014C426.993 158.315 427.611 159.42 427.31 160.483C427.009 161.546 425.904 162.164 424.841 161.863L425.931 158.014ZM423.998 161.637C422.927 161.368 422.277 160.281 422.546 159.21C422.816 158.139 423.903 157.489 424.974 157.758L423.998 161.637ZM417.147 156.735C418.252 156.751 419.134 157.659 419.119 158.764C419.103 159.868 418.195 160.751 417.09 160.735L417.147 156.735ZM416.154 160.732C415.049 160.732 414.154 159.837 414.154 158.732C414.154 157.627 415.049 156.732 416.154 156.732V160.732ZM408.189 156.732C409.294 156.732 410.189 157.627 410.189 158.732C410.189 159.837 409.294 160.732 408.189 160.732V156.732ZM407.194 160.732C406.089 160.732 405.194 159.837 405.194 158.732C405.194 157.627 406.089 156.732 407.194 156.732V160.732ZM399.229 156.732C400.334 156.732 401.229 157.627 401.229 158.732C401.229 159.837 400.334 160.732 399.229 160.732V156.732ZM398.234 160.732C397.129 160.732 396.234 159.837 396.234 158.732C396.234 157.627 397.129 156.732 398.234 156.732V160.732ZM390.269 156.732C391.374 156.732 392.269 157.627 392.269 158.732C392.269 159.837 391.374 160.732 390.269 160.732V156.732ZM389.274 160.732C388.169 160.732 387.274 159.837 387.274 158.732C387.274 157.627 388.169 156.732 389.274 156.732V160.732ZM381.309 156.732C382.414 156.732 383.309 157.627 383.309 158.732C383.309 159.837 382.414 160.732 381.309 160.732V156.732ZM380.314 160.732C379.209 160.732 378.314 159.837 378.314 158.732C378.314 157.627 379.209 156.732 380.314 156.732V160.732ZM372.349 156.732C373.454 156.732 374.349 157.627 374.349 158.732C374.349 159.837 373.454 160.732 372.349 160.732V156.732ZM371.354 160.732C370.249 160.732 369.354 159.837 369.354 158.732C369.354 157.627 370.249 156.732 371.354 156.732V160.732ZM363.389 156.732C364.494 156.732 365.389 157.627 365.389 158.732C365.389 159.837 364.494 160.732 363.389 160.732V156.732ZM362.394 160.732C361.289 160.732 360.394 159.837 360.394 158.732C360.394 157.627 361.289 156.732 362.394 156.732V160.732ZM354.429 156.732C355.534 156.732 356.429 157.627 356.429 158.732C356.429 159.837 355.534 160.732 354.429 160.732V156.732ZM353.434 160.732C352.329 160.732 351.434 159.837 351.434 158.732C351.434 157.627 352.329 156.732 353.434 156.732V160.732ZM345.469 156.732C346.574 156.732 347.469 157.627 347.469 158.732C347.469 159.837 346.574 160.732 345.469 160.732V156.732ZM344.474 160.732C343.369 160.732 342.474 159.837 342.474 158.732C342.474 157.627 343.369 156.732 344.474 156.732V160.732ZM336.509 156.732C337.614 156.732 338.509 157.627 338.509 158.732C338.509 159.837 337.614 160.732 336.509 160.732V156.732ZM335.514 160.732C334.409 160.732 333.514 159.837 333.514 158.732C333.514 157.627 334.409 156.732 335.514 156.732V160.732ZM327.549 156.732C328.654 156.732 329.549 157.627 329.549 158.732C329.549 159.837 328.654 160.732 327.549 160.732V156.732ZM326.554 160.732C325.449 160.732 324.554 159.837 324.554 158.732C324.554 157.627 325.449 156.732 326.554 156.732V160.732ZM318.589 156.732C319.694 156.732 320.589 157.627 320.589 158.732C320.589 159.837 319.694 160.732 318.589 160.732V156.732ZM317.594 160.732C316.489 160.732 315.594 159.837 315.594 158.732C315.594 157.627 316.489 156.732 317.594 156.732V160.732ZM309.629 156.732C310.734 156.732 311.629 157.627 311.629 158.732C311.629 159.837 310.734 160.732 309.629 160.732V156.732ZM308.634 160.732C307.529 160.732 306.634 159.837 306.634 158.732C306.634 157.627 307.529 156.732 308.634 156.732V160.732ZM300.669 156.732C301.774 156.732 302.669 157.627 302.669 158.732C302.669 159.837 301.774 160.732 300.669 160.732V156.732ZM299.674 160.732C298.569 160.732 297.674 159.837 297.674 158.732C297.674 157.627 298.569 156.732 299.674 156.732V160.732ZM291.71 156.732C292.814 156.732 293.71 157.627 293.71 158.732C293.71 159.837 292.814 160.732 291.71 160.732V156.732ZM290.714 160.732C289.609 160.732 288.714 159.837 288.714 158.732C288.714 157.627 289.609 156.732 290.714 156.732V160.732ZM282.75 156.732C283.854 156.732 284.75 157.627 284.75 158.732C284.75 159.837 283.854 160.732 282.75 160.732V156.732ZM281.754 160.732C280.649 160.732 279.754 159.837 279.754 158.732C279.754 157.627 280.649 156.732 281.754 156.732V160.732ZM273.79 156.732C274.894 156.732 275.79 157.627 275.79 158.732C275.79 159.837 274.894 160.732 273.79 160.732V156.732ZM272.794 160.732C271.689 160.732 270.794 159.837 270.794 158.732C270.794 157.627 271.689 156.732 272.794 156.732V160.732ZM264.83 156.732C265.934 156.732 266.83 157.627 266.83 158.732C266.83 159.837 265.934 160.732 264.83 160.732V156.732ZM263.834 160.732C262.729 160.732 261.834 159.837 261.834 158.732C261.834 157.627 262.729 156.732 263.834 156.732V160.732ZM255.87 156.732C256.974 156.732 257.87 157.627 257.87 158.732C257.87 159.837 256.974 160.732 255.87 160.732V156.732ZM446.651 278.248V277.762H450.651V278.248H446.651ZM446.651 269.982V269.01H450.651V269.982H446.651ZM446.651 261.231V260.258H450.651V261.231H446.651ZM446.651 252.479V251.507H450.651V252.479H446.651ZM446.651 243.728V242.755H450.651V243.728H446.651ZM446.651 234.976V234.004H450.651V234.976H446.651ZM446.651 226.224V225.252H450.651V226.224H446.651ZM446.651 217.473V216.5H450.651V217.473H446.651ZM446.651 208.721V207.749H450.651V208.721H446.651ZM446.651 199.97V198.997H450.651V199.97H446.651ZM446.651 191.218V190.732H450.651V191.218H446.651ZM446.651 190.732C446.651 190.585 446.65 190.439 446.648 190.293L450.648 190.236C450.65 190.401 450.651 190.566 450.651 190.732H446.651ZM445.746 183.386C445.675 183.103 445.6 182.822 445.52 182.542L449.369 181.453C449.459 181.77 449.544 182.089 449.625 182.409L445.746 183.386ZM442.854 176.11C442.711 175.856 442.566 175.605 442.417 175.355L445.849 173.302C446.018 173.584 446.184 173.87 446.345 174.158L442.854 176.11ZM438.171 169.83C437.968 169.621 437.762 169.415 437.554 169.212L440.341 166.343C440.577 166.573 440.81 166.806 441.04 167.042L438.171 169.83ZM432.028 164.967C431.779 164.818 431.527 164.672 431.273 164.53L433.226 161.039C433.514 161.2 433.799 161.365 434.082 161.534L432.028 164.967ZM424.841 161.863C424.562 161.784 424.28 161.709 423.998 161.637L424.974 157.758C425.295 157.839 425.614 157.924 425.931 158.014L424.841 161.863ZM417.09 160.735C416.944 160.733 416.798 160.732 416.651 160.732V156.732C416.817 156.732 416.982 156.733 417.147 156.735L417.09 160.735ZM416.651 160.732H416.154V156.732H416.651V160.732ZM408.189 160.732H407.194V156.732H408.189V160.732ZM399.229 160.732H398.234V156.732H399.229V160.732ZM390.269 160.732H389.274V156.732H390.269V160.732ZM381.309 160.732H380.314V156.732H381.309V160.732ZM372.349 160.732H371.354V156.732H372.349V160.732ZM363.389 160.732H362.394V156.732H363.389V160.732ZM354.429 160.732H353.434V156.732H354.429V160.732ZM345.469 160.732H344.474V156.732H345.469V160.732ZM336.509 160.732H335.514V156.732H336.509V160.732ZM327.549 160.732H326.554V156.732H327.549V160.732ZM318.589 160.732H317.594V156.732H318.589V160.732ZM309.629 160.732H308.634V156.732H309.629V160.732ZM300.669 160.732H299.674V156.732H300.669V160.732ZM291.71 160.732H290.714V156.732H291.71V160.732ZM282.75 160.732H281.754V156.732H282.75V160.732ZM273.79 160.732H272.794V156.732H273.79V160.732ZM264.83 160.732H263.834V156.732H264.83V160.732ZM255.87 160.732H255.372V156.732H255.87V160.732Z" fill="#78FF00"/>
<path d="M55.2219 277.762C55.2219 276.657 54.3265 275.762 53.2219 275.762C52.1174 275.762 51.2219 276.657 51.2219 277.762H55.2219ZM51.2219 269.982C51.2219 271.087 52.1174 271.982 53.2219 271.982C54.3265 271.982 55.2219 271.087 55.2219 269.982H51.2219ZM55.2219 269.01C55.2219 267.905 54.3265 267.01 53.2219 267.01C52.1174 267.01 51.2219 267.905 51.2219 269.01H55.2219ZM51.2219 261.231C51.2219 262.335 52.1174 263.231 53.2219 263.231C54.3265 263.231 55.2219 262.335 55.2219 261.231H51.2219ZM55.2219 260.258C55.2219 259.154 54.3265 258.258 53.2219 258.258C52.1174 258.258 51.2219 259.154 51.2219 260.258H55.2219ZM51.2219 252.479C51.2219 253.584 52.1174 254.479 53.2219 254.479C54.3265 254.479 55.2219 253.584 55.2219 252.479H51.2219ZM55.2219 251.507C55.2219 250.402 54.3265 249.507 53.2219 249.507C52.1174 249.507 51.2219 250.402 51.2219 251.507H55.2219ZM51.2219 243.728C51.2219 244.832 52.1174 245.728 53.2219 245.728C54.3265 245.728 55.2219 244.832 55.2219 243.728H51.2219ZM55.2219 242.755C55.2219 241.651 54.3265 240.755 53.2219 240.755C52.1174 240.755 51.2219 241.651 51.2219 242.755H55.2219ZM51.2219 234.976C51.2219 236.081 52.1174 236.976 53.2219 236.976C54.3265 236.976 55.2219 236.081 55.2219 234.976H51.2219ZM55.2219 234.004C55.2219 232.899 54.3265 232.004 53.2219 232.004C52.1174 232.004 51.2219 232.899 51.2219 234.004H55.2219ZM51.2219 226.224C51.2219 227.329 52.1174 228.224 53.2219 228.224C54.3265 228.224 55.2219 227.329 55.2219 226.224H51.2219ZM55.2219 225.252C55.2219 224.148 54.3265 223.252 53.2219 223.252C52.1174 223.252 51.2219 224.148 51.2219 225.252H55.2219ZM51.2219 217.473C51.2219 218.577 52.1174 219.473 53.2219 219.473C54.3265 219.473 55.2219 218.577 55.2219 217.473H51.2219ZM55.2219 216.5C55.2219 215.396 54.3265 214.5 53.2219 214.5C52.1174 214.5 51.2219 215.396 51.2219 216.5H55.2219ZM51.2219 208.721C51.2219 209.826 52.1174 210.721 53.2219 210.721C54.3265 210.721 55.2219 209.826 55.2219 208.721H51.2219ZM55.2219 207.749C55.2219 206.644 54.3265 205.749 53.2219 205.749C52.1174 205.749 51.2219 206.644 51.2219 207.749H55.2219ZM51.2219 199.97C51.2219 201.074 52.1174 201.97 53.2219 201.97C54.3265 201.97 55.2219 201.074 55.2219 199.97H51.2219ZM55.2219 198.997C55.2219 197.893 54.3265 196.997 53.2219 196.997C52.1174 196.997 51.2219 197.893 51.2219 198.997H55.2219ZM51.2219 191.218C51.2219 192.323 52.1174 193.218 53.2219 193.218C54.3265 193.218 55.2219 192.323 55.2219 191.218H51.2219ZM55.2251 190.293C55.2409 189.189 54.3584 188.281 53.2539 188.265C52.1494 188.249 51.2413 189.131 51.2255 190.236L55.2251 190.293ZM52.2484 182.409C51.9788 183.481 52.6287 184.567 53.6998 184.837C54.771 185.107 55.8579 184.457 56.1275 183.386L52.2484 182.409ZM56.3529 182.542C56.6538 181.479 56.0361 180.374 54.9733 180.073C53.9105 179.772 52.805 180.39 52.5041 181.453L56.3529 182.542ZM55.5287 174.158C54.9895 175.122 55.3339 176.34 56.2979 176.88C57.262 177.419 58.4806 177.074 59.0197 176.11L55.5287 174.158ZM59.4567 175.355C60.0237 174.407 59.715 173.179 58.767 172.612C57.8191 172.045 56.591 172.354 56.024 173.302L59.4567 175.355ZM60.8333 167.042C60.0636 167.835 60.0819 169.101 60.8742 169.871C61.6664 170.64 62.9326 170.622 63.7023 169.83L60.8333 167.042ZM64.3196 169.212C65.1119 168.443 65.1302 167.176 64.3605 166.384C63.5908 165.592 62.3246 165.574 61.5324 166.343L64.3196 169.212ZM67.7917 161.534C66.8438 162.101 66.535 163.329 67.102 164.277C67.6691 165.225 68.8972 165.534 69.8451 164.967L67.7917 161.534ZM70.6003 164.53C71.5644 163.991 71.9088 162.772 71.3696 161.808C70.8304 160.844 69.6118 160.499 68.6478 161.039L70.6003 164.53ZM75.9427 158.014C74.8799 158.315 74.2622 159.42 74.5631 160.483C74.864 161.546 75.9694 162.164 77.0322 161.863L75.9427 158.014ZM77.8756 161.637C78.9468 161.368 79.5966 160.281 79.327 159.21C79.0575 158.139 77.9706 157.489 76.8994 157.758L77.8756 161.637ZM84.7259 156.735C83.6215 156.751 82.739 157.659 82.7548 158.764C82.7706 159.868 83.6787 160.751 84.7832 160.735L84.7259 156.735ZM85.7269 160.732C86.8315 160.732 87.7269 159.837 87.7269 158.732C87.7269 157.627 86.8315 156.732 85.7269 156.732V160.732ZM93.8066 156.732C92.702 156.732 91.8066 157.627 91.8066 158.732C91.8066 159.837 92.702 160.732 93.8066 160.732V156.732ZM94.8166 160.732C95.9211 160.732 96.8166 159.837 96.8166 158.732C96.8166 157.627 95.9211 156.732 94.8166 156.732V160.732ZM102.896 156.732C101.792 156.732 100.896 157.627 100.896 158.732C100.896 159.837 101.792 160.732 102.896 160.732V156.732ZM103.906 160.732C105.011 160.732 105.906 159.837 105.906 158.732C105.906 157.627 105.011 156.732 103.906 156.732V160.732ZM111.986 156.732C110.881 156.732 109.986 157.627 109.986 158.732C109.986 159.837 110.881 160.732 111.986 160.732V156.732ZM112.996 160.732C114.1 160.732 114.996 159.837 114.996 158.732C114.996 157.627 114.1 156.732 112.996 156.732V160.732ZM121.076 156.732C119.971 156.732 119.076 157.627 119.076 158.732C119.076 159.837 119.971 160.732 121.076 160.732V156.732ZM122.086 160.732C123.19 160.732 124.086 159.837 124.086 158.732C124.086 157.627 123.19 156.732 122.086 156.732V160.732ZM130.165 156.732C129.061 156.732 128.165 157.627 128.165 158.732C128.165 159.837 129.061 160.732 130.165 160.732V156.732ZM131.175 160.732C132.28 160.732 133.175 159.837 133.175 158.732C133.175 157.627 132.28 156.732 131.175 156.732V160.732ZM139.255 156.732C138.15 156.732 137.255 157.627 137.255 158.732C137.255 159.837 138.15 160.732 139.255 160.732V156.732ZM140.265 160.732C141.369 160.732 142.265 159.837 142.265 158.732C142.265 157.627 141.369 156.732 140.265 156.732V160.732ZM148.345 156.732C147.24 156.732 146.345 157.627 146.345 158.732C146.345 159.837 147.24 160.732 148.345 160.732V156.732ZM149.355 160.732C150.459 160.732 151.355 159.837 151.355 158.732C151.355 157.627 150.459 156.732 149.355 156.732V160.732ZM157.434 156.732C156.33 156.732 155.434 157.627 155.434 158.732C155.434 159.837 156.33 160.732 157.434 160.732V156.732ZM158.444 160.732C159.549 160.732 160.444 159.837 160.444 158.732C160.444 157.627 159.549 156.732 158.444 156.732V160.732ZM166.524 156.732C165.419 156.732 164.524 157.627 164.524 158.732C164.524 159.837 165.419 160.732 166.524 160.732V156.732ZM167.534 160.732C168.638 160.732 169.534 159.837 169.534 158.732C169.534 157.627 168.638 156.732 167.534 156.732V160.732ZM175.614 156.732C174.509 156.732 173.614 157.627 173.614 158.732C173.614 159.837 174.509 160.732 175.614 160.732V156.732ZM176.623 160.732C177.728 160.732 178.623 159.837 178.623 158.732C178.623 157.627 177.728 156.732 176.623 156.732V160.732ZM184.703 156.732C183.599 156.732 182.703 157.627 182.703 158.732C182.703 159.837 183.599 160.732 184.703 160.732V156.732ZM185.713 160.732C186.818 160.732 187.713 159.837 187.713 158.732C187.713 157.627 186.818 156.732 185.713 156.732V160.732ZM193.793 156.732C192.688 156.732 191.793 157.627 191.793 158.732C191.793 159.837 192.688 160.732 193.793 160.732V156.732ZM194.803 160.732C195.907 160.732 196.803 159.837 196.803 158.732C196.803 157.627 195.907 156.732 194.803 156.732V160.732ZM202.883 156.732C201.778 156.732 200.883 157.627 200.883 158.732C200.883 159.837 201.778 160.732 202.883 160.732V156.732ZM203.892 160.732C204.997 160.732 205.892 159.837 205.892 158.732C205.892 157.627 204.997 156.732 203.892 156.732V160.732ZM211.972 156.732C210.868 156.732 209.972 157.627 209.972 158.732C209.972 159.837 210.868 160.732 211.972 160.732V156.732ZM212.982 160.732C214.087 160.732 214.982 159.837 214.982 158.732C214.982 157.627 214.087 156.732 212.982 156.732V160.732ZM221.062 156.732C219.957 156.732 219.062 157.627 219.062 158.732C219.062 159.837 219.957 160.732 221.062 160.732V156.732ZM222.072 160.732C223.176 160.732 224.072 159.837 224.072 158.732C224.072 157.627 223.176 156.732 222.072 156.732V160.732ZM230.151 156.732C229.047 156.732 228.151 157.627 228.151 158.732C228.151 159.837 229.047 160.732 230.151 160.732V156.732ZM231.161 160.732C232.266 160.732 233.161 159.837 233.161 158.732C233.161 157.627 232.266 156.732 231.161 156.732V160.732ZM239.241 156.732C238.137 156.732 237.241 157.627 237.241 158.732C237.241 159.837 238.137 160.732 239.241 160.732V156.732ZM240.251 160.732C241.356 160.732 242.251 159.837 242.251 158.732C242.251 157.627 241.356 156.732 240.251 156.732V160.732ZM248.331 156.732C247.226 156.732 246.331 157.627 246.331 158.732C246.331 159.837 247.226 160.732 248.331 160.732V156.732ZM55.2219 278.248V277.762H51.2219V278.248H55.2219ZM55.2219 269.982V269.01H51.2219V269.982H55.2219ZM55.2219 261.231V260.258H51.2219V261.231H55.2219ZM55.2219 252.479V251.507H51.2219V252.479H55.2219ZM55.2219 243.728V242.755H51.2219V243.728H55.2219ZM55.2219 234.976V234.004H51.2219V234.976H55.2219ZM55.2219 226.224V225.252H51.2219V226.224H55.2219ZM55.2219 217.473V216.5H51.2219V217.473H55.2219ZM55.2219 208.721V207.749H51.2219V208.721H55.2219ZM55.2219 199.97V198.997H51.2219V199.97H55.2219ZM55.2219 191.218V190.732H51.2219V191.218H55.2219ZM55.2219 190.732C55.2219 190.585 55.223 190.439 55.2251 190.293L51.2255 190.236C51.2231 190.401 51.2219 190.566 51.2219 190.732H55.2219ZM56.1275 183.386C56.1986 183.103 56.2738 182.822 56.3529 182.542L52.5041 181.453C52.4144 181.77 52.3291 182.089 52.2484 182.409L56.1275 183.386ZM59.0197 176.11C59.1618 175.856 59.3075 175.605 59.4567 175.355L56.024 173.302C55.8549 173.584 55.6897 173.87 55.5287 174.158L59.0197 176.11ZM63.7023 169.83C63.9051 169.621 64.1109 169.415 64.3196 169.212L61.5324 166.343C61.296 166.573 61.0629 166.806 60.8333 167.042L63.7023 169.83ZM69.8451 164.967C70.0945 164.818 70.3463 164.672 70.6003 164.53L68.6478 161.039C68.3598 161.2 68.0744 161.365 67.7917 161.534L69.8451 164.967ZM77.0322 161.863C77.3117 161.784 77.5929 161.709 77.8756 161.637L76.8994 157.758C76.5787 157.839 76.2597 157.924 75.9427 158.014L77.0322 161.863ZM84.7832 160.735C84.9292 160.733 85.0754 160.732 85.2219 160.732V156.732C85.0563 156.732 84.891 156.733 84.7259 156.735L84.7832 160.735ZM85.2219 160.732H85.7269V156.732H85.2219V160.732ZM93.8066 160.732H94.8166V156.732H93.8066V160.732ZM102.896 160.732H103.906V156.732H102.896V160.732ZM111.986 160.732H112.996V156.732H111.986V160.732ZM121.076 160.732H122.086V156.732H121.076V160.732ZM130.165 160.732H131.175V156.732H130.165V160.732ZM139.255 160.732H140.265V156.732H139.255V160.732ZM148.345 160.732H149.355V156.732H148.345V160.732ZM157.434 160.732H158.444V156.732H157.434V160.732ZM166.524 160.732H167.534V156.732H166.524V160.732ZM175.614 160.732H176.623V156.732H175.614V160.732ZM184.703 160.732H185.713V156.732H184.703V160.732ZM193.793 160.732H194.803V156.732H193.793V160.732ZM202.883 160.732H203.892V156.732H202.883V160.732ZM211.972 160.732H212.982V156.732H211.972V160.732ZM221.062 160.732H222.072V156.732H221.062V160.732ZM230.151 160.732H231.161V156.732H230.151V160.732ZM239.241 160.732H240.251V156.732H239.241V160.732ZM248.331 160.732H248.836V156.732H248.331V160.732Z" fill="#78FF00"/>
<line x1="252.236" y1="58.9568" x2="252.236" y2="152.063" stroke="#78FF00" stroke-width="4" stroke-linecap="round" stroke-dasharray="1 8"/>
<line x1="187.81" y1="162.599" x2="187.81" y2="259.441" stroke="#78FF00" stroke-width="4" stroke-linecap="round" stroke-dasharray="1 8"/>
<line x1="319.464" y1="162.599" x2="319.464" y2="259.441" stroke="#78FF00" stroke-width="4" stroke-linecap="round" stroke-dasharray="1 8"/>
<rect x="196.081" width="107.378" height="107.378" rx="20" fill="#F7F7F7"/>
<g clip-path="url(#clip0_416_336)">
<path d="M269.326 33.6138C264.664 33.6138 260.718 35.261 257.919 38.4C257.782 38.5617 257.6 38.6757 257.399 38.7266C257.197 38.7776 256.986 38.7629 256.792 38.6847C256.599 38.6065 256.434 38.4685 256.318 38.2892C256.202 38.1099 256.142 37.898 256.145 37.6818V35.2018C256.145 34.921 256.038 34.6517 255.848 34.4532C255.657 34.2546 255.399 34.1431 255.13 34.1431H244.39C244.121 34.1431 243.863 34.2546 243.672 34.4532C243.482 34.6517 243.375 34.921 243.375 35.2018V53.9356C243.226 59.3178 240.462 63.1082 235.885 63.1896C232.032 63.1896 229.559 60.3838 229.559 55.7568V35.2018C229.559 35.0627 229.533 34.9251 229.482 34.7966C229.431 34.6682 229.356 34.5515 229.262 34.4532C229.168 34.3549 229.056 34.2769 228.933 34.2237C228.809 34.1705 228.677 34.1431 228.544 34.1431H217.637C217.368 34.1431 217.11 34.2546 216.92 34.4532C216.729 34.6517 216.623 34.921 216.623 35.2018V59.6324C216.623 69.1863 222.147 75.3309 230.652 75.3309C235.144 75.268 238.812 73.6911 241.449 70.604C241.585 70.4437 241.765 70.3302 241.964 70.2787C242.163 70.2272 242.373 70.2399 242.565 70.3154C242.757 70.3908 242.923 70.5252 243.041 70.701C243.158 70.8768 243.221 71.0856 243.223 71.2999V73.6652C243.228 73.9428 243.338 74.2069 243.529 74.4008C243.719 74.5946 243.975 74.7027 244.241 74.7017H255.148C255.417 74.7017 255.675 74.5901 255.865 74.3916C256.056 74.193 256.163 73.9238 256.163 73.643V53.4803C256.674 48.857 259.658 45.7477 264.018 45.6699C268.091 45.6699 270.706 48.5535 270.706 53.1768V73.6541C270.706 73.9349 270.813 74.2042 271.004 74.4027C271.194 74.6012 271.452 74.7128 271.721 74.7128H282.557C282.826 74.7128 283.084 74.6012 283.275 74.4027C283.465 74.2042 283.572 73.9349 283.572 73.6541V49.3123C283.572 39.6807 277.902 33.6138 269.326 33.6138Z" fill="#453FF9"/>
</g>
<rect y="216.623" width="107.378" height="107.378" rx="20" fill="#F7F7F7"/>
<g clip-path="url(#clip1_416_336)">
<path d="M88.1345 253.275C85.8717 253.275 84.2641 255.034 84.2641 257.732V267.631H80.8091V250.205H84.2235V252.333C84.644 251.63 85.246 251.051 85.9673 250.656C86.6886 250.26 87.5032 250.063 88.327 250.085H89.5698V253.275H88.1345ZM78.4213 258.918C78.4213 253.724 74.7063 249.837 69.6403 249.837C68.4535 249.844 67.2798 250.084 66.1863 250.542C65.0929 251 64.101 251.667 63.2674 252.506C62.4339 253.344 61.7748 254.337 61.328 255.428C60.8812 256.519 60.6554 257.687 60.6634 258.865V258.918C60.6634 264.109 64.7162 268.037 69.9645 268.037C71.4353 268.065 72.8914 267.742 74.2099 267.095C75.5284 266.447 76.6705 265.495 77.5398 264.317L75.0339 262.491C74.4584 263.288 73.6971 263.935 72.8149 264.377C71.9328 264.818 70.9559 265.042 69.9679 265.028C68.5609 265.02 67.203 264.513 66.1399 263.599C65.0769 262.684 64.379 261.422 64.1724 260.041H78.4179L78.4213 258.918ZM64.2602 257.32C64.8749 254.662 67.0161 252.863 69.6099 252.863C72.2037 252.863 74.3381 254.662 74.9224 257.32H64.2602ZM49.7378 249.837C48.5811 249.836 47.4359 250.064 46.3686 250.507C45.3013 250.949 44.3331 251.597 43.5202 252.414V243.7H40.0618V267.631H43.4796V265.42C44.2982 266.243 45.2723 266.897 46.3461 267.347C47.42 267.796 48.5725 268.03 49.7378 268.037C52.1701 268.088 54.5233 267.178 56.2796 265.508C58.036 263.837 59.0516 261.543 59.1031 259.129C59.1546 256.716 58.2377 254.381 56.5543 252.638C54.8708 250.895 52.5585 249.888 50.1262 249.837H49.7277H49.7378ZM49.4879 264.974C48.2854 264.981 47.108 264.633 46.1045 263.976C45.101 263.318 44.3166 262.38 43.8504 261.28C43.3843 260.181 43.2573 258.968 43.4856 257.797C43.7139 256.625 44.2871 255.547 45.1329 254.699C45.9787 253.851 47.059 253.271 48.2371 253.032C49.4153 252.793 50.6383 252.906 51.7516 253.357C52.8649 253.808 53.8185 254.576 54.4916 255.565C55.1647 256.554 55.5272 257.718 55.5333 258.912V258.959C55.5351 260.547 54.901 262.071 53.7706 263.196C52.6401 264.321 51.1057 264.955 49.5048 264.957H49.4879V264.974ZM27.3361 264.813C30.6695 264.813 33.2768 262.27 33.2768 258.466V243.7H36.8567V267.631H33.3038V265.366C32.4772 266.215 31.4855 266.888 30.3888 267.345C29.2922 267.801 28.1134 268.032 26.924 268.024C21.7804 268.024 17.8053 264.304 17.8053 258.66V243.7H21.4562V258.486C21.4562 262.313 23.9486 264.813 27.3361 264.813Z" fill="black"/>
<path d="M17.7406 273.426H34.6947V277.548H22.3202V283.392H34.3502V287.37H22.3202V293.298H34.6947V297.42H17.7406V273.426ZM81.511 297.853C86.7087 297.853 89.6369 295.383 89.6369 291.992C89.6369 289.575 87.9043 287.772 84.2737 286.991L80.4371 286.214C78.2114 285.802 77.5089 285.39 77.5089 284.569C77.5089 283.503 78.5829 282.846 80.5485 282.846C82.6931 282.846 84.2804 283.419 84.6958 285.386H89.1944C88.9479 281.7 86.2629 279.237 80.8221 279.237C76.1175 279.237 72.8178 281.164 72.8178 284.897C72.8178 287.477 74.6348 289.156 78.5593 289.977L82.8552 290.953C84.5439 291.288 84.9998 291.733 84.9998 292.431C84.9998 293.536 83.7232 294.233 81.6563 294.233C79.0591 294.233 77.5765 293.66 76.9989 291.693H72.4767C73.1522 295.38 75.8979 297.846 81.511 297.846V297.853ZM71.1697 297.404H66.3064C63.2668 297.404 61.5612 295.52 61.5612 293.141V283.714H58.1366V279.693H61.5781V274.666H66.097V279.693H71.1629V283.714H66.097V291.992C66.097 292.937 66.7724 293.389 67.7856 293.389H71.1629L71.1697 297.404ZM51.6758 279.706V281.304C50.084 279.97 48.0657 279.241 45.9817 279.247C44.7378 279.2 43.497 279.4 42.3317 279.834C41.1664 280.268 40.0998 280.928 39.1941 281.776C38.2885 282.623 37.5619 283.641 37.0567 284.769C36.5515 285.898 36.2778 287.116 36.2515 288.35C36.2253 289.585 36.4471 290.813 36.9039 291.962C37.3607 293.111 38.0435 294.158 38.9124 295.043C39.7813 295.927 40.8189 296.631 41.9647 297.114C43.1106 297.596 44.3418 297.847 45.5866 297.853H45.9817C48.0663 297.862 50.0857 297.133 51.6758 295.795V297.397H56.1846V279.699L51.6758 279.706ZM46.3532 293.969C45.2751 293.979 44.2182 293.671 43.3161 293.085C42.4139 292.499 41.707 291.661 41.2846 290.677C40.8622 289.693 40.7432 288.606 40.9428 287.555C41.1424 286.504 41.6514 285.535 42.4058 284.77C43.1601 284.006 44.1258 283.48 45.1809 283.26C46.236 283.04 47.3332 283.135 48.3338 283.534C49.3345 283.932 50.1937 284.616 50.803 285.498C51.4122 286.381 51.7442 287.423 51.7569 288.493V288.56C51.7695 289.981 51.2127 291.35 50.2089 292.364C49.2051 293.378 47.8364 293.955 46.4039 293.969H46.3464H46.3532Z" fill="#5FB709"/>
</g>
<g clip-path="url(#clip2_416_336)">
<path d="M219.863 216.623H150.823C140.236 216.623 131.654 225.205 131.654 235.791V304.832C131.654 315.418 140.236 324 150.823 324H219.863C230.45 324 239.032 315.418 239.032 304.832V235.791C239.032 225.205 230.45 216.623 219.863 216.623Z" fill="#F2F2F2"/>
<path fill-rule="evenodd" clip-rule="evenodd" d="M183.558 259.738L171.536 278.053L162.953 278.011C161.75 278.011 161.282 277.17 161.961 276.142L168.783 265.797C167.289 265.439 165.866 264.829 164.575 263.994C161.543 262.005 159.42 258.897 158.67 255.349C157.92 251.801 158.604 248.1 160.572 245.054C161.54 243.547 162.797 242.247 164.27 241.229C165.742 240.21 167.402 239.493 169.153 239.119C170.904 238.744 172.712 238.72 174.472 239.048C176.233 239.375 177.911 240.048 179.41 241.027C182.408 242.991 184.519 246.049 185.292 249.549C186.066 253.048 185.441 256.711 183.552 259.756L183.558 259.738ZM212.614 259.738L200.592 278.053L192.003 278.011C190.801 278.011 190.338 277.17 191.017 276.142L197.821 265.791C196.326 265.434 194.903 264.824 193.614 263.988C190.581 261.999 188.458 258.892 187.707 255.344C186.956 251.796 187.638 248.095 189.605 245.048C190.574 243.542 191.831 242.242 193.304 241.224C194.778 240.206 196.438 239.489 198.189 239.115C199.94 238.74 201.748 238.716 203.509 239.043C205.27 239.37 206.948 240.042 208.449 241.021C211.445 242.986 213.555 246.044 214.328 249.543C215.102 253.042 214.478 256.705 212.59 259.75L212.614 259.738ZM201.055 256.943C202.036 256.949 202.997 256.664 203.816 256.123C204.634 255.582 205.274 254.81 205.653 253.905C206.032 253 206.134 252.003 205.946 251.04C205.758 250.077 205.288 249.192 204.596 248.497C203.904 247.801 203.021 247.327 202.059 247.134C201.097 246.941 200.099 247.038 199.193 247.413C198.286 247.788 197.511 248.424 196.966 249.24C196.421 250.056 196.131 251.015 196.132 251.996C196.131 252.644 196.257 253.286 196.503 253.886C196.75 254.485 197.112 255.03 197.569 255.489C198.026 255.949 198.57 256.314 199.168 256.563C199.766 256.812 200.407 256.942 201.055 256.943V256.943ZM171.999 256.943C172.98 256.949 173.941 256.664 174.759 256.123C175.578 255.582 176.217 254.81 176.597 253.905C176.976 253 177.078 252.003 176.89 251.04C176.702 250.077 176.232 249.192 175.54 248.497C174.848 247.801 173.965 247.327 173.003 247.134C172.041 246.941 171.043 247.038 170.136 247.413C169.23 247.788 168.455 248.424 167.91 249.24C167.365 250.056 167.075 251.015 167.076 251.996C167.074 252.645 167.199 253.287 167.445 253.887C167.692 254.486 168.054 255.032 168.511 255.491C168.968 255.951 169.512 256.315 170.11 256.565C170.709 256.814 171.351 256.942 171.999 256.943V256.943Z" fill="#EAB51F"/>
<path fill-rule="evenodd" clip-rule="evenodd" d="M210.282 288.031V282.141L213.636 281.089V301.82H210.282V300.99C209.234 301.568 208.051 301.854 206.856 301.82C202.768 301.82 200.52 299.223 200.52 294.511C200.52 289.798 202.768 287.202 206.856 287.202C208.051 287.17 209.233 287.456 210.282 288.031V288.031ZM162.796 286.504V290.297H169.408V293.669H162.796V301.826H159.418V283.132H170.881V286.504H162.796ZM192.61 298.586C195.062 298.586 196.253 297.258 196.253 294.517C196.253 291.776 195.05 290.441 192.61 290.441C190.17 290.441 188.937 291.758 188.937 294.517C188.937 297.276 190.134 298.586 192.586 298.586H192.61ZM185.722 294.517C185.722 289.804 188.168 287.208 192.61 287.208C197.052 287.208 199.492 289.804 199.492 294.517C199.492 299.229 197.046 301.826 192.61 301.826C188.174 301.826 185.722 299.229 185.722 294.517ZM177.793 298.586C180.246 298.586 181.436 297.258 181.436 294.517C181.436 291.776 180.234 290.441 177.793 290.441C175.353 290.441 174.145 291.776 174.145 294.517C174.145 297.258 175.317 298.586 177.769 298.586H177.793ZM170.905 294.517C170.905 289.804 173.351 287.208 177.793 287.208C182.235 287.208 184.676 289.804 184.676 294.517C184.676 299.229 182.229 301.826 177.793 301.826C173.357 301.826 170.905 299.229 170.905 294.517ZM206.88 298.616C208.978 298.616 209.999 297.282 209.999 294.541C209.999 291.8 208.978 290.466 206.88 290.466C204.782 290.466 203.754 291.794 203.754 294.541C203.754 297.288 204.752 298.616 206.856 298.616H206.88Z" fill="#EAB51F"/>
</g>
<rect x="263.308" y="216.623" width="107.378" height="107.378" rx="20" fill="#F7F7F7"/>
<g clip-path="url(#clip3_416_336)">
<path d="M277.314 276.761H283.353L286.71 259.662H280.668L277.314 276.761ZM281.282 257.093H287.31L288.302 252.104H282.273L281.282 257.093ZM285.705 281.57H291.743L295.434 263.101H299.966L300.638 259.662H296.191L296.359 258.891C296.611 257.43 297.113 255.797 299.377 255.797C300.719 255.797 301.981 255.883 303.232 256.486L303.908 252.875C302.506 252.371 301.031 252.11 299.545 252.104C294.68 252.104 291.333 255.025 290.065 259.662H287.962L287.292 263.101H289.395L285.705 281.57Z" fill="#EA1D2C"/>
<path d="M304.83 277.106C311.963 277.106 316.918 270.491 316.918 265.078C316.918 261.037 313.312 259.336 309.79 259.336C301.981 259.321 297.702 266.46 297.702 271.349C297.702 275.386 301.392 277.091 304.83 277.091V277.106ZM323.959 277.091C331.092 277.091 336.04 270.476 336.04 265.064C336.04 261.023 332.35 259.321 328.824 259.321C321.022 259.321 316.743 266.449 316.743 271.349C316.743 275.386 320.521 277.091 323.959 277.091ZM345.857 276.732H351.815L356.68 252.463H350.638L349.211 259.677L346.709 259.408C340.835 259.408 335.466 267.139 335.466 272.637C335.466 274.87 336.892 277.106 339.321 277.106C342.759 277.106 345.191 275.386 346.197 273.667H346.548L345.857 276.732ZM327.233 289.535C322.543 293.511 316.521 295.454 310.452 294.947C302.482 294.43 296.783 288.16 295.77 281.542H296.121C297.217 283.867 298.865 285.873 300.915 287.376C302.964 288.88 305.349 289.833 307.851 290.148C313.389 290.838 320.017 288.261 323.623 284.736L319.596 281.57H331.761L329.076 294.814L327.324 289.66L327.233 289.535Z" fill="#EA1D2C"/>
</g>
<rect x="394.963" y="216.623" width="107.378" height="107.378" rx="20" fill="#F7F7F7"/>
<g clip-path="url(#clip4_416_336)">
<path d="M440.261 263.614C440.354 263.517 440.437 263.412 440.509 263.301C440.701 262.957 440.975 262.662 441.309 262.441C441.642 262.22 442.025 262.078 442.427 262.028C442.9 261.933 443.388 261.937 443.859 262.037C444.33 262.138 444.774 262.334 445.162 262.611C445.405 262.777 445.594 263.006 445.706 263.271C445.819 263.537 445.85 263.828 445.796 264.11C445.738 264.318 445.654 264.518 445.548 264.708C445.067 265.816 444.556 266.895 444.09 268.003C443.36 269.635 442.799 271.33 442.241 273.022C442.082 273.536 442.014 274.073 442.04 274.608C442.033 274.708 442.033 274.808 442.04 274.907C442.053 274.989 442.098 275.063 442.166 275.114C442.234 275.164 442.32 275.187 442.405 275.178C442.438 275.173 442.47 275.162 442.5 275.147C442.662 275.084 442.815 274.998 442.952 274.893C444.138 274.026 445.06 272.867 445.621 271.538C446.602 268.963 447.718 266.417 448.728 263.839C448.957 263.151 449.456 262.576 450.118 262.238C450.78 261.9 451.553 261.824 452.272 262.028C452.953 262.19 453.566 262.551 454.026 263.062L454.46 262.777C454.974 262.425 455.47 262.056 456.013 261.743C456.663 261.361 457.398 261.135 458.158 261.085C459.086 260.985 460.02 261.228 460.771 261.764C461.523 262.3 462.036 263.09 462.209 263.976C462.486 265.22 462.486 266.506 462.209 267.75C461.686 270.764 460.466 273.625 458.639 276.121C458.549 276.234 458.467 276.351 458.391 276.473C458.314 276.592 458.624 276.473 458.734 276.473C460.594 275.465 462.012 273.84 462.723 271.9C463.314 270.31 463.933 268.735 464.546 267.18C464.98 266.086 465.447 265.01 465.91 263.93C465.961 263.79 466.019 263.649 466.081 263.512C466.338 262.88 466.841 262.371 467.482 262.091C468.122 261.811 468.851 261.783 469.512 262.013C469.926 262.13 470.316 262.317 470.661 262.566L471.285 262.97C471.572 262.801 471.846 262.612 472.105 262.404C472.912 261.772 473.863 261.335 474.88 261.127C475.828 260.914 476.826 261.065 477.66 261.549C478.495 262.033 479.101 262.811 479.351 263.719C479.537 264.354 479.646 265.008 479.675 265.668C479.69 267.131 479.46 268.587 478.993 269.98C478.351 272.119 477.342 274.14 476.01 275.959C475.919 276.078 475.836 276.202 475.762 276.332C475.762 276.451 475.919 276.423 476.01 276.332C477.964 275.253 479.411 273.489 480.051 271.408C480.794 268.9 481.798 266.472 483.048 264.159C483.234 263.807 483.413 263.456 483.635 263.142C483.866 262.804 484.164 262.512 484.512 262.284C484.86 262.057 485.251 261.898 485.663 261.816C486.075 261.734 486.499 261.732 486.912 261.808C487.325 261.885 487.718 262.04 488.069 262.263L488.171 262.334C488.516 262.525 488.771 262.837 488.884 263.205C488.996 263.573 488.958 263.969 488.777 264.31C488.357 265.327 487.909 266.333 487.489 267.303L485.819 271.327C485.522 272.002 485.319 272.711 485.214 273.437C485.068 273.936 485.117 274.47 485.353 274.936C485.527 274.971 485.708 274.959 485.875 274.901C486.043 274.842 486.19 274.74 486.301 274.605C487.248 273.763 488.103 272.829 488.853 271.819C489.026 271.575 489.214 271.34 489.415 271.116C489.516 271.018 489.637 270.94 489.77 270.886C489.903 270.833 490.046 270.806 490.189 270.806C490.333 270.806 490.476 270.833 490.609 270.886C490.742 270.94 490.863 271.018 490.964 271.116C491.085 271.228 491.166 271.373 491.196 271.531C491.227 271.689 491.206 271.853 491.136 271.999L490.983 272.255C489.868 274.029 488.565 275.687 487.096 277.201C486.319 277.997 485.464 278.719 484.543 279.357C483.885 279.812 483.124 280.11 482.322 280.225C482.018 280.257 481.711 280.257 481.407 280.225C480.974 280.227 480.551 280.106 480.189 279.877C479.827 279.648 479.543 279.322 479.372 278.938C479.163 278.573 479.038 278.169 479.008 277.753L478.891 276.916C478.723 276.796 478.629 276.916 478.526 276.916C478.012 277.267 477.498 277.619 476.973 277.95C475.41 278.949 473.658 279.641 471.817 279.986C470.546 280.202 469.253 280.267 467.966 280.18C467.37 280.13 466.817 279.856 466.428 279.416C466.256 279.251 466.147 279.012 465.851 278.906C465.851 279.086 465.713 279.237 465.666 279.385L463.711 286.293C463.626 286.652 463.511 287.005 463.368 287.348C463.265 287.654 463.051 287.914 462.767 288.082C462.482 288.249 462.144 288.313 461.815 288.262C461.05 288.233 460.311 287.988 459.689 287.559C459.229 287.243 458.88 286.8 458.688 286.287C458.496 285.775 458.472 285.218 458.617 284.692C458.738 284.071 458.893 283.455 459.08 282.849C459.518 281.277 459.981 279.705 460.433 278.133C460.433 277.992 460.433 277.851 460.433 277.711C460.166 277.723 459.91 277.818 459.704 277.981C458.538 278.791 457.283 279.474 455.962 280.018C454.31 280.5 452.578 280.678 450.857 280.542C450.528 280.516 450.208 280.427 449.914 280.281C449.621 280.135 449.36 279.934 449.147 279.691C448.994 279.54 448.899 279.339 448.622 279.227C448.542 279.434 448.451 279.599 448.403 279.779C447.765 282.04 447.116 284.274 446.478 286.535C446.383 286.848 446.34 287.165 446.259 287.464C446.222 287.72 446.101 287.958 445.914 288.144C445.727 288.33 445.484 288.454 445.22 288.498C444.897 288.551 444.566 288.551 444.243 288.498C443.733 288.448 443.242 288.287 442.806 288.027C442.371 287.768 442.001 287.416 441.727 286.999C441.391 286.504 441.261 285.905 441.362 285.322C441.433 284.847 441.537 284.377 441.672 283.915C442.106 282.343 442.558 280.771 443.007 279.198C443.106 278.956 443.149 278.695 443.131 278.435C443.034 278.454 442.94 278.484 442.85 278.523C442.525 278.78 442.215 279.019 441.92 279.272C440.972 280.022 439.804 280.468 438.58 280.545C438.088 280.612 437.587 280.525 437.151 280.295C436.715 280.066 436.367 279.707 436.159 279.272C436.134 279.145 436.081 279.025 436.002 278.921C435.754 278.442 435.601 278.411 435.149 278.787L434.514 279.311C433.792 279.871 432.948 280.268 432.046 280.472C431.351 280.63 430.629 280.63 429.934 280.472C429.355 280.334 428.818 280.065 428.367 279.688C427.916 279.311 427.565 278.835 427.342 278.302C426.981 277.468 426.779 276.577 426.747 275.674C426.703 274.85 426.76 274.023 426.919 273.212C427.33 270.599 428.276 268.091 429.701 265.833C430.265 264.998 430.921 264.224 431.659 263.526C432.803 262.409 434.267 261.647 435.863 261.338C436.507 261.204 437.174 261.204 437.818 261.338C438.274 261.402 438.708 261.572 439.081 261.833C439.455 262.094 439.757 262.438 439.962 262.836C440.045 263.101 440.144 263.361 440.261 263.614V263.614ZM456.378 264.785C456.266 264.77 456.152 264.782 456.046 264.821C455.94 264.859 455.846 264.923 455.773 265.007C455.433 265.299 455.116 265.615 454.825 265.953C454.101 266.794 453.481 267.714 452.976 268.693C452.115 270.349 451.448 272.092 450.989 273.891C450.82 274.525 450.698 275.171 450.624 275.822C450.602 276.164 450.628 276.507 450.701 276.842C450.701 277.095 450.981 277.169 451.215 277.021L451.401 276.884C451.902 276.468 452.35 275.995 452.735 275.477C454.544 273.027 455.823 270.251 456.495 267.314C456.624 266.693 456.687 266.062 456.681 265.429C456.69 265.302 456.666 265.176 456.611 265.061C456.557 264.946 456.473 264.846 456.367 264.771L456.378 264.785ZM473.586 264.662C473.328 264.725 473.095 264.861 472.918 265.052C472.134 265.771 471.468 266.601 470.946 267.514C469.438 269.893 468.386 272.514 467.839 275.252C467.795 275.685 467.795 276.121 467.839 276.553C467.831 276.671 467.856 276.788 467.911 276.894C467.966 276.999 468.05 277.088 468.152 277.151C468.298 277.084 468.437 277.004 468.568 276.912C469.101 276.478 469.567 275.974 469.954 275.414C471.67 273.048 472.908 270.391 473.6 267.581C473.801 266.895 473.901 266.184 473.895 265.471C473.903 265.323 473.879 265.175 473.826 265.036C473.773 264.897 473.691 264.77 473.586 264.662V264.662ZM437.687 264.574C437.539 264.635 437.399 264.711 437.267 264.799C436.772 265.238 436.344 265.743 435.995 266.297C434.464 268.578 433.403 271.121 432.87 273.789C432.687 274.651 432.629 275.532 432.698 276.409C432.688 276.523 432.702 276.638 432.739 276.746C432.777 276.855 432.837 276.954 432.917 277.039C433.037 277.035 433.154 277.006 433.261 276.954C433.368 276.903 433.462 276.83 433.537 276.74C434.281 276.07 434.898 275.279 435.36 274.404C436.363 272.602 437.125 270.684 437.628 268.696C437.859 267.844 437.988 266.97 438.015 266.09C438.065 265.564 437.951 265.036 437.687 264.574V264.574Z" fill="#F95D6C"/>
<path d="M415.01 275.583C414.928 275.65 414.861 275.732 414.814 275.824C414.766 275.917 414.738 276.018 414.733 276.121L413.675 280.152C413.604 280.435 413.517 280.715 413.413 280.989C413.333 281.182 413.203 281.352 413.034 281.481C412.865 281.61 412.663 281.694 412.45 281.724C411.701 281.872 410.923 281.8 410.217 281.517C409.512 281.234 408.91 280.754 408.49 280.137C408.126 279.575 408.004 278.897 408.151 278.249C408.349 276.872 408.648 275.511 409.048 274.176C410.35 269.771 411.974 265.461 413.908 261.278C414.028 261.019 414.168 260.768 414.328 260.529C414.503 260.258 414.748 260.035 415.04 259.882C415.331 259.73 415.659 259.654 415.991 259.66C417.074 259.615 418.159 259.65 419.236 259.766C420.075 259.9 420.414 260.364 420.184 261.173C420.143 261.389 420.064 261.597 419.951 261.788L417.354 268.119C417.23 268.387 417.139 268.657 417.044 268.911C417.065 268.963 417.106 269.005 417.158 269.029C417.211 269.053 417.27 269.056 417.325 269.037C417.347 269.028 417.368 269.016 417.387 269.002C419.775 267.949 421.709 266.128 422.857 263.849C423.44 262.703 423.641 261.41 423.433 260.149C423.33 259.469 423 258.839 422.492 258.355C421.985 257.872 421.328 257.561 420.621 257.469C418.871 257.165 417.065 257.461 415.517 258.306C414.171 258.98 412.981 259.91 412.02 261.041C411.059 262.171 410.347 263.479 409.927 264.883C409.817 265.256 409.77 265.647 409.693 266.037C409.682 266.106 409.682 266.176 409.693 266.245C409.688 266.424 409.646 266.601 409.57 266.765C409.494 266.929 409.385 267.077 409.25 267.201C409.114 267.324 408.955 267.421 408.781 267.485C408.606 267.549 408.421 267.579 408.235 267.574C408.159 267.571 408.083 267.563 408.009 267.549C407.501 267.497 407.017 267.311 406.612 267.011C406.123 266.657 405.741 266.183 405.503 265.64C405.265 265.096 405.181 264.501 405.259 263.916C405.327 263.089 405.593 262.288 406.036 261.577C406.974 259.923 408.304 258.507 409.919 257.445C412.107 255.975 414.629 255.036 417.273 254.707C419.917 254.378 422.604 254.669 425.107 255.556C426.271 255.935 427.331 256.566 428.206 257.399C429.045 258.139 429.65 259.094 429.949 260.152C430.249 261.211 430.231 262.329 429.898 263.378C429.497 264.848 428.706 266.191 427.601 267.275C426.176 268.669 424.471 269.768 422.591 270.504C421.985 270.743 421.362 270.954 420.742 271.179C420.352 271.33 420.261 271.432 420.308 271.837C420.409 273.517 420.705 275.18 421.19 276.796C421.662 278.291 422.435 279.681 423.466 280.887C424.408 282.018 425.718 282.809 427.185 283.131C428.215 283.349 429.286 283.303 430.292 282.997C430.883 282.818 431.426 282.578 431.984 282.353C432.203 282.279 432.388 282.16 432.604 282.068C432.84 281.945 433.116 281.913 433.376 281.978C433.635 282.044 433.86 282.201 434.004 282.42C434.141 282.627 434.189 282.878 434.136 283.119C434.084 283.36 433.935 283.571 433.723 283.707C432.546 284.743 431.23 285.622 429.81 286.321C429.046 286.7 428.239 286.992 427.404 287.189C425.789 287.633 424.072 287.599 422.478 287.091C420.883 286.583 419.483 285.625 418.459 284.34C417.62 283.357 416.969 282.238 416.538 281.034C416.046 279.702 415.687 278.328 415.465 276.93C415.44 276.59 415.378 276.254 415.279 275.927C415.217 275.795 415.125 275.677 415.01 275.583V275.583Z" fill="#F95D6C"/>
<path d="M488.153 253.038C488.65 253.019 489.145 253.096 489.611 253.263C490.076 253.43 490.503 253.684 490.866 254.011C491.23 254.338 491.522 254.731 491.728 255.168C491.933 255.604 492.046 256.076 492.062 256.555C492.064 256.571 492.064 256.588 492.062 256.604C492.098 257.343 491.906 258.076 491.51 258.71C491.114 259.345 490.532 259.851 489.838 260.167C489.144 260.482 488.369 260.593 487.61 260.483C486.851 260.374 486.142 260.05 485.574 259.553C485.005 259.056 484.602 258.407 484.416 257.689C484.229 256.971 484.267 256.216 484.525 255.519C484.783 254.822 485.25 254.214 485.865 253.773C486.481 253.331 487.219 253.075 487.985 253.038H488.153Z" fill="#F95D6C"/>
</g>
<circle cx="187.21" cy="158.265" r="7.9366" fill="#F7F7F7"/>
<circle cx="318.865" cy="158.265" r="7.9366" fill="#F7F7F7"/>
<circle cx="252.571" cy="157.331" r="7.9366" fill="#F7F7F7"/>
<defs>
<clipPath id="clip0_416_336">
<rect width="66.9492" height="41.7061" fill="white" transform="translate(216.623 33.6138)"/>
</clipPath>
<clipPath id="clip1_416_336">
<rect width="71.8963" height="54.1556" fill="white" transform="translate(17.7406 243.7)"/>
</clipPath>
<clipPath id="clip2_416_336">
<rect width="107.378" height="107.378" fill="white" transform="translate(131.654 216.623)"/>
</clipPath>
<clipPath id="clip3_416_336">
<rect width="79.366" height="42.951" fill="white" transform="translate(277.314 252.104)"/>
</clipPath>
<clipPath id="clip4_416_336">
<rect width="86.8357" height="35.4813" fill="white" transform="translate(405.234 253.038)"/>
</clipPath>
</defs>
</svg>
